<?xml version="1.0" encoding="UTF-8" standalone="no"?>
<!-- Generator: Adobe Illustrator 19.2.1, SVG Export Plug-In . SVG Version: 6.00 Build 0)  -->

<svg
   xmlns:dc="http://purl.org/dc/elements/1.1/"
   xmlns:cc="http://creativecommons.org/ns#"
   xmlns:rdf="http://www.w3.org/1999/02/22-rdf-syntax-ns#"
   xmlns:svg="http://www.w3.org/2000/svg"
   xmlns="http://www.w3.org/2000/svg"
   xmlns:sodipodi="http://sodipodi.sourceforge.net/DTD/sodipodi-0.dtd"
   xmlns:inkscape="http://www.inkscape.org/namespaces/inkscape"
   version="1.1"
   id="Layer_1"
   x="0px"
   y="0px"
   viewBox="0 0 717.76733 152.37225"
   xml:space="preserve"
   inkscape:version="0.91 r13725"
   sodipodi:docname="logo.svg"
   width="717.76733"
   height="152.37225"><metadata
     id="metadata3395"><rdf:RDF><cc:Work
         rdf:about=""><dc:format>image/svg+xml</dc:format><dc:type
           rdf:resource="http://purl.org/dc/dcmitype/StillImage" /><dc:title></dc:title></cc:Work></rdf:RDF></metadata><defs
     id="defs3393" /><sodipodi:namedview
     pagecolor="#ffffff"
     bordercolor="#666666"
     borderopacity="1"
     objecttolerance="10"
     gridtolerance="10"
     guidetolerance="10"
     inkscape:pageopacity="0"
     inkscape:pageshadow="2"
     inkscape:window-width="1509"
     inkscape:window-height="781"
     id="namedview3391"
     showgrid="false"
     fit-margin-top="2"
     fit-margin-left="0"
     fit-margin-right="0"
     fit-margin-bottom="2"
     inkscape:zoom="0.62"
     inkscape:cx="-147.80406"
     inkscape:cy="-116.54495"
     inkscape:window-x="231"
     inkscape:window-y="223"
     inkscape:window-maximized="0"
     inkscape:current-layer="g3339"
     showborder="true" /><style
     type="text/css"
     id="style3337">
	.st0{font-family:''Times New Roman';font-weight:bold';fill:#BA0C2F;}
	.st1{font-size:166.0944px;}
	.st2{font-size:162.6521px;}
	.st3{font-size:132.8757px;}
	.st4{font-family:''Futura';font-weight:bold';fill:#BA0C2F;}
	.st5{font-size:34.2833px;}
	.st6{clip-path:url(#SVGID_2_);fill:#CD163F;}
	.st7{clip-path:url(#SVGID_2_);fill:none;stroke:#000000;stroke-width:3.7886;stroke-miterlimit:3.8637;}
	.st8{clip-path:url(#SVGID_2_);fill:#FFFFFF;}
	.st9{clip-path:url(#SVGID_2_);fill:none;stroke:#000000;stroke-width:4.7358;stroke-miterlimit:3.8637;}
	.st10{clip-path:url(#SVGID_2_);fill:none;stroke:#000000;stroke-width:2.8415;stroke-miterlimit:3.8637;}
	.st11{clip-path:url(#SVGID_2_);}
	.st12{clip-path:url(#SVGID_2_);fill:none;stroke:#000000;stroke-width:1.8943;stroke-miterlimit:3.8637;}
	.st13{clip-path:url(#SVGID_2_);fill:none;stroke:#FFFFFF;stroke-width:3.7886;stroke-miterlimit:3.8637;}
	.st14{clip-path:url(#SVGID_2_);fill:none;stroke:#000000;stroke-width:1.8945;stroke-miterlimit:3.8637;}
	.st15{clip-path:url(#SVGID_2_);fill:none;stroke:#FFFFFF;stroke-width:4.7358;stroke-miterlimit:3.8637;}
	.st16{clip-path:url(#SVGID_2_);fill:none;stroke:#000000;stroke-width:7.5772;stroke-miterlimit:3.8637;}
	.st17{fill:#CD163F;}
	.st18{fill:none;stroke:#000000;stroke-width:0.526;}
	.st19{fill:#FFFFFF;}
	.st20{fill:#FFFFFF;stroke:#000000;stroke-width:0.526;}
	.st21{fill:none;stroke:#FFFFFF;stroke-width:0.526;}
	.st22{fill:#BA0C2F}
</style><g
     id="g3339"
     transform="translate(-35.739538,-207.52668)"><g
       transform="translate(31.8467,355.3037)"
       style="font-weight:bold;font-size:166.09440613px;font-family:'Times New Roman';fill:#ba0c2f"
       id="text3341"><path
         d="m 3.8928376,-109.97266 56.7705494,0 0,3.00073 -2.838528,0 q -6.406962,0 -8.839985,1.37871 -2.351923,1.29761 -3.406233,3.64953 -0.97321,2.351927 -0.97321,11.759618 l 0,53.850921 q 0,14.760342 2.189722,19.545289 2.270821,4.784946 7.380171,7.9478765 5.109349,3.1629306 12.895025,3.1629306 8.921086,0 15.165846,-3.9739384 6.325861,-4.0550397 9.407691,-11.1108077 3.162931,-7.055768 3.162931,-24.573537 l 0,-44.848734 q 0,-7.380171 -1.540915,-10.543098 -1.540915,-3.16293 -3.892838,-4.37945 -3.649535,-1.86531 -10.299799,-1.86531 l 0,-3.00073 38.036265,0 0,3.00073 -2.27082,0 q -4.62274,0 -7.70457,1.86531 -3.08183,1.86532 -4.46055,5.595958 -1.05431,2.595225 -1.05431,9.32659 l 0,41.766904 q 0,19.383087 -2.595222,27.97977 -2.514125,8.596684 -12.40842,15.8146533 -9.894296,7.2179698 -27.006562,7.2179698 -14.273738,0 -22.059413,-3.8117369 Q 26.92546,-6.406962 22.546018,-14.51704 18.166576,-22.627119 18.166576,-36.333151 l 0,-53.850921 q 0,-9.488792 -1.054311,-11.759618 -1.05431,-2.35192 -3.649535,-3.73063 -2.595225,-1.37872 -9.5698924,-1.29761 l 0,-3.00073 z"
         style="font-weight:bold;font-size:166.09440613px;font-family:'Times New Roman';fill:#ba0c2f"
         id="path4255"
         inkscape:connector-curvature="0" /></g><g
       transform="matrix(1.0212,0,0,1,667.7803,354.8604)"
       style="font-weight:bold;font-size:162.65209961px;font-family:'Times New Roman';fill:#ba0c2f"
       id="text3343"><path
         d="m 76.402012,-110.1555 0.873619,35.897828 -3.256218,0 Q 71.716233,-87.759067 62.662357,-95.939324 53.6879,-104.199 43.204464,-104.199 q -8.100837,0 -12.866035,4.368097 -4.685779,4.288678 -4.685779,9.927496 0,3.573899 1.66782,6.353598 2.303179,3.732739 7.386057,7.386057 3.732739,2.620859 17.234134,9.292137 18.901953,9.292136 25.49381,17.551813 6.512438,8.259677 6.512438,18.901953 0,13.501395 -10.562856,23.2700517 -10.483436,9.6892364 -26.68511,9.6892364 -5.082878,0 -9.609817,-1.0324597 -4.526938,-1.03245958 -11.357056,-3.8915785 -3.812158,-1.5883994 -6.274177,-1.5883994 -2.064919,0 -4.368099,1.5883994 -2.303179,1.58839939 -3.732738,4.8446182 l -2.9385391,0 0,-40.6630251 2.9385391,0 q 3.494478,17.154714 13.421975,26.20859 10.006916,8.9744571 21.522812,8.9744571 8.895037,0 14.136755,-4.8446182 5.321138,-4.8446179 5.321138,-11.2776359 0,-3.812158 -2.06492,-7.386057 -1.985499,-3.573899 -6.115337,-6.750698 -4.129839,-3.256218 -14.613275,-8.418517 -14.692694,-7.227217 -21.125712,-12.310095 -6.433018,-5.082878 -9.927496,-11.357056 -3.4150592,-6.274177 -3.4150592,-13.819075 0,-12.866035 9.4509762,-21.919909 9.450977,-9.05388 23.825991,-9.05388 5.241719,0 10.165757,1.27072 3.732738,0.95304 9.053876,3.5739 5.400558,2.54144 7.544898,2.54144 2.064919,0 3.256218,-1.27072 1.1913,-1.27072 2.22376,-6.11534 l 2.382599,0 z"
         style="font-weight:bold;font-size:162.65209961px;font-family:'Times New Roman';fill:#ba0c2f"
         id="path4252"
         inkscape:connector-curvature="0" /></g><g
       transform="translate(150.1533,333.3896)"
       style="font-weight:bold;font-size:132.8757019px;font-family:'Times New Roman';fill:#ba0c2f"
       id="text3345"><path
         d="m 33.089164,-87.978248 43.405198,54.56468 0,-37.825456 q 0,-7.915447 -2.270825,-10.705318 -3.114275,-3.763081 -10.445795,-3.63332 l 0,-2.400586 29.066559,0 0,2.400586 q -5.579741,0.713688 -7.526162,1.881541 -1.881541,1.102972 -2.984513,3.698201 -1.038092,2.530348 -1.038092,8.758896 l 0,73.2503261 -2.205944,0 -59.495614,-73.2503261 0,55.927176 q 0,7.5910431 3.438677,10.2511523 3.503559,2.6601093 7.980328,2.6601093 l 2.076183,0 0,2.4005864 -31.2076233,0 0,-2.4005864 q 7.2666399,-0.064881 10.1213913,-2.9845128 2.854751,-2.9196322 2.854751,-9.9267488 l 0,-62.090844 -1.88154,-2.335705 Q 10.186272,-83.241956 8.0452085,-84.344928 5.904145,-85.4479 1.8815407,-85.577662 l 0,-2.400586 31.2076233,0 z"
         style="font-weight:bold;font-size:132.8757019px;font-family:'Times New Roman';fill:#ba0c2f"
         id="path4249"
         inkscape:connector-curvature="0" /></g><g
       transform="translate(246.0889,333.3896)"
       style="font-weight:bold;font-size:132.8757019px;font-family:'Times New Roman';fill:#ba0c2f"
       id="text3347"><path
         d="m 48.660535,-2.4005864 0,2.4005864 -46.0004257,0 0,-2.4005864 2.9196321,0 q 3.8279621,0 6.1636676,-1.362495 1.686899,-0.90833 2.595229,-3.1142743 0.713688,-1.5571371 0.713688,-8.1749703 l 0,-57.873596 q 0,-6.747595 -0.713688,-8.434493 -0.713688,-1.686899 -2.919632,-2.919632 -2.1410639,-1.297615 -5.8392646,-1.297615 l -2.9196321,0 0,-2.400586 46.0004257,0 0,2.400586 -2.919632,0 q -3.827962,0 -6.163668,1.362495 -1.686898,0.90833 -2.660109,3.114275 -0.713688,1.557137 -0.713688,8.17497 l 0,57.873596 q 0,6.7475946 0.713688,8.4344932 0.778569,1.6868985 2.919632,2.9845128 2.205945,1.2327336 5.904145,1.2327336 l 2.919632,0 z"
         style="font-weight:bold;font-size:132.8757019px;font-family:'Times New Roman';fill:#ba0c2f"
         id="path4246"
         inkscape:connector-curvature="0" /></g><g
       transform="translate(297.7803,333.3896)"
       style="font-weight:bold;font-size:132.8757019px;font-family:'Times New Roman';fill:#ba0c2f"
       id="text3349"><path
         d="m 83.825882,-87.978248 0,23.811222 -2.335705,0 q -2.076183,-8.239851 -4.606531,-11.80829 -2.530348,-3.63332 -6.942237,-5.774383 -2.465467,-1.167853 -8.629134,-1.167853 l -6.552953,0 0,67.865226 q 0,6.7475946 0.713688,8.4344932 0.778569,1.6868985 2.919632,2.9845128 2.205945,1.2327336 5.969026,1.2327336 l 2.919632,0 0,2.4005864 -46.065307,0 0,-2.4005864 2.919633,0 q 3.827962,0 6.163667,-1.362495 1.686899,-0.90833 2.66011,-3.1142743 0.713687,-1.5571371 0.713687,-8.1749703 l 0,-67.865226 -6.358309,0 q -8.888658,0 -12.911263,3.763081 -5.6446216,5.255338 -7.1368781,14.987445 l -2.4654671,0 0,-23.811222 79.0247092,0 z"
         style="font-weight:bold;font-size:132.8757019px;font-family:'Times New Roman';fill:#ba0c2f"
         id="path4243"
         inkscape:connector-curvature="0" /></g><g
       transform="translate(386.4092,333.3896)"
       style="font-weight:bold;font-size:132.8757019px;font-family:'Times New Roman';fill:#ba0c2f"
       id="text3351"><path
         d="m 35.295108,-40.096281 0,24.654671 q 0,7.1368786 0.84345,9.0184193 0.90833,1.81666 3.114274,2.9196322 2.205944,1.1029721 8.239851,1.1029721 l 0,2.4005864 -45.0272159,0 0,-2.4005864 q 6.0987871,0 8.2398509,-1.1029721 2.205944,-1.1678529 3.049393,-2.9845129 0.90833,-1.81666 0.90833,-8.9535386 l 0,-57.095028 q 0,-7.136879 -0.90833,-8.953539 -0.843449,-1.88154 -3.049393,-2.984512 -2.2059445,-1.102973 -8.2398509,-1.102973 l 0,-2.400586 40.8748499,0 q 15.960655,0 23.357057,2.205944 7.396401,2.205945 12.067813,8.17497 4.671411,5.904145 4.671411,13.884473 0,9.732107 -7.007117,16.090417 -4.476769,4.022604 -12.521978,6.033906 l 21.151113,29.780248 q 4.152366,5.7743836 5.904145,7.2017593 2.660109,2.0113021 6.163668,2.2059443 l 0,2.4005864 -27.704065,0 -28.352872,-40.096281 -5.774384,0 z m 0,-43.145675 0,38.539144 3.698201,0 q 9.018419,0 13.495188,-1.622018 4.47677,-1.686898 7.007118,-5.969025 2.595228,-4.347008 2.595228,-11.289245 0,-10.05651 -4.736292,-14.857683 -4.671411,-4.801173 -15.117206,-4.801173 l -6.942237,0 z"
         style="font-weight:bold;font-size:132.8757019px;font-family:'Times New Roman';fill:#ba0c2f"
         id="path4240"
         inkscape:connector-curvature="0" /></g><g
       transform="translate(482.3447,333.3896)"
       style="font-weight:bold;font-size:132.8757019px;font-family:'Times New Roman';fill:#ba0c2f"
       id="text3353"><path
         d="m 55.278368,-25.043956 -31.077862,0 -3.6982,8.564255 q -1.81666,4.282127 -1.81666,7.0719975 0,3.6982007 2.984512,5.44998 1.75178,1.0380914 8.629135,1.5571371 l 0,2.4005864 -29.2612016,0 0,-2.4005864 Q 5.7743835,-3.1142743 8.8237771,-6.2934292 11.873171,-9.5374649 16.34994,-19.593976 l 31.467146,-70.200932 1.232734,0 31.726669,72.147354 q 4.54165,10.2511526 7.461282,12.9112619 2.205944,2.0113021 6.228548,2.3357057 l 0,2.4005864 -42.561748,0 0,-2.4005864 1.751779,0 q 5.125577,0 7.20176,-1.4273757 1.427375,-1.0380914 1.427375,-2.9845129 0,-1.1678528 -0.389284,-2.4005864 -0.129761,-0.5839264 -1.946421,-4.8660536 l -4.671412,-10.964841 z m -2.205944,-4.801172 -13.105904,-30.299294 -13.495189,30.299294 26.601093,0 z"
         style="font-weight:bold;font-size:132.8757019px;font-family:'Times New Roman';fill:#ba0c2f"
         id="path4237"
         inkscape:connector-curvature="0" /></g><g
       transform="translate(578.2803,333.3896)"
       style="font-weight:bold;font-size:132.8757019px;font-family:'Times New Roman';fill:#ba0c2f"
       id="text3355"><path
         d="m 33.089164,-87.978248 43.405198,54.56468 0,-37.825456 q 0,-7.915447 -2.270825,-10.705318 -3.114275,-3.763081 -10.445795,-3.63332 l 0,-2.400586 29.066559,0 0,2.400586 q -5.579741,0.713688 -7.526162,1.881541 -1.881541,1.102972 -2.984513,3.698201 -1.038092,2.530348 -1.038092,8.758896 l 0,73.2503261 -2.205944,0 -59.495614,-73.2503261 0,55.927176 q 0,7.5910431 3.438677,10.2511523 3.503559,2.6601093 7.980328,2.6601093 l 2.076183,0 0,2.4005864 -31.2076233,0 0,-2.4005864 q 7.2666399,-0.064881 10.1213913,-2.9845128 2.854751,-2.9196322 2.854751,-9.9267488 l 0,-62.090844 -1.88154,-2.335705 Q 10.186272,-83.241956 8.0452085,-84.344928 5.904145,-85.4479 1.8815407,-85.577662 l 0,-2.400586 31.2076233,0 z"
         style="font-weight:bold;font-size:132.8757019px;font-family:'Times New Roman';fill:#ba0c2f"
         id="path4234"
         inkscape:connector-curvature="0" /></g><g
       transform="matrix(1,0,0,1.0443,39.4072,235.7314)"
       style="font-style:normal;font-variant:normal;font-weight:normal;font-stretch:normal;font-size:34.28329849px;font-family:'Futura Hv BT';-inkscape-font-specification:'Futura Hv BT';fill:#ba0c2f"
       id="text3357"><path
         d="m 15.43418,-9.3241198 -2.745342,-7.9179692 q -0.117179,-0.351537 -0.301318,-1.205272 -0.184139,-0.853734 -0.385018,-2.092486 -0.217618,1.188532 -0.418497,2.142706 -0.200879,0.937434 -0.301318,1.255492 l -2.6449028,7.8175292 6.7963958,0 z M -0.16739892,0 9.1567208,-24.507202 l 5.9928812,0 L 24.607641,0 18.64824,0 l -1.992048,-5.2061064 -9.4915183,0 L 5.4572047,0 -0.16739892,0 Z"
         style="font-style:normal;font-variant:normal;font-weight:normal;font-stretch:normal;font-size:34.28329849px;font-family:'Futura Hv BT';-inkscape-font-specification:'Futura Hv BT';fill:#ba0c2f"
         id="path4231"
         inkscape:connector-curvature="0" /></g><g
       transform="matrix(1,0,0,1.0443,74.4443,235.7314)"
       style="font-style:normal;font-variant:normal;font-weight:normal;font-stretch:normal;font-size:34.28329849px;font-family:'Futura Hv BT';-inkscape-font-specification:'Futura Hv BT';fill:#ba0c2f"
       id="text3359"><path
         d="m 1.1717924,-3.1136199 2.9127412,-3.2977587 q 0.5524164,1.3559313 1.7744285,2.1427062 1.2220121,0.770035 2.7453423,0.770035 1.8413886,0 2.9127416,-0.8704744 1.071353,-0.8704743 1.071353,-2.3435848 0,-1.7409488 -3.5655973,-3.4651574 -1.1550525,-0.552417 -1.8246482,-0.903954 -3.2140592,-1.67399 -4.4528112,-3.264279 -1.238752,-1.60703 -1.238752,-3.816696 0,-3.02992 2.3938045,-4.971748 2.4105444,-1.958567 6.2439792,-1.958567 2.226406,0 3.833436,0.786775 1.623769,0.770035 2.862521,2.427284 l -3.09688,2.962961 q -0.552416,-1.071353 -1.47311,-1.59029 -0.903954,-0.535676 -2.192926,-0.535676 -1.5568101,0 -2.5109839,0.786775 -0.9541738,0.770035 -0.9541738,2.008787 0,1.941827 3.7832157,3.548857 0.753295,0.318058 1.155052,0.502197 3.11362,1.422891 4.603471,3.214059 1.50659,1.7911684 1.50659,4.0845336 0,3.4484177 -2.360325,5.5074244 -2.343585,2.04226678 -6.3109391,2.04226678 -2.8123018,0 -4.8210888,-0.97091372 Q 2.159446,-1.2889717 1.1717924,-3.1136199 Z"
         style="font-style:normal;font-variant:normal;font-weight:normal;font-stretch:normal;font-size:34.28329849px;font-family:'Futura Hv BT';-inkscape-font-specification:'Futura Hv BT';fill:#ba0c2f"
         id="path4228"
         inkscape:connector-curvature="0" /></g><g
       transform="matrix(1,0,0,1.0443,107.5947,235.7314)"
       style="font-style:normal;font-variant:normal;font-weight:normal;font-stretch:normal;font-size:34.28329849px;font-family:'Futura Hv BT';-inkscape-font-specification:'Futura Hv BT';fill:#ba0c2f"
       id="text3361"><path
         d="m 23.820866,-24.507202 0,15.2500418 q 0,4.9884878 -2.628163,7.4492519 -2.628163,2.46076408 -7.917969,2.46076408 -5.3735051,0 -8.0016681,-2.46076408 -2.628163,-2.4607641 -2.628163,-7.4492519 l 0,-15.2500418 5.2061064,0 0,14.429787 q 0,3.0299205 1.3391913,4.5699906 1.3391914,1.5233301 4.0008344,1.5233301 2.678382,0 4.051054,-1.54007 1.372671,-1.5400701 1.372671,-4.5532507 l 0,-14.429787 5.206106,0 z"
         style="font-style:normal;font-variant:normal;font-weight:normal;font-stretch:normal;font-size:34.28329849px;font-family:'Futura Hv BT';-inkscape-font-specification:'Futura Hv BT';fill:#ba0c2f"
         id="path4225"
         inkscape:connector-curvature="0" /></g><g
       transform="matrix(1,0,0,1.0443,142.6318,235.7314)"
       style="font-style:normal;font-variant:normal;font-weight:normal;font-stretch:normal;font-size:34.28329849px;font-family:'Futura Hv BT';-inkscape-font-specification:'Futura Hv BT';fill:#ba0c2f"
       id="text3363"><path
         d="m 22.481675,-18.129303 q -1.59029,-1.422891 -3.264279,-2.075746 -1.673989,-0.669596 -3.582337,-0.669596 -3.917135,0 -6.2439797,2.343585 -2.3268449,2.343585 -2.3268449,6.294199 0,3.8669151 2.159446,6.1435404 2.1594456,2.2598854 5.8924416,2.2598854 2.125967,0 3.950615,-0.7030755 1.824648,-0.7198153 3.381458,-2.1427061 l -0.03348,5.3735052 q -1.673989,0.98765366 -3.515377,1.47311052 -1.824648,0.48545686 -3.850175,0.48545686 -5.8589624,0 -9.625438,-3.63255648 -3.7497358,-3.6492965 -3.7497358,-9.2571603 0,-5.591124 3.7664756,-9.22368 3.7664757,-3.632557 9.7091372,-3.632557 1.992047,0 3.850175,0.418497 1.858128,0.418498 3.666037,1.288972 l -0.184139,5.256326 z"
         style="font-style:normal;font-variant:normal;font-weight:normal;font-stretch:normal;font-size:34.28329849px;font-family:'Futura Hv BT';-inkscape-font-specification:'Futura Hv BT';fill:#ba0c2f"
         id="path4222"
         inkscape:connector-curvature="0" /></g><g
       transform="matrix(1,0,0,1.0443,177.6689,235.7314)"
       style="font-style:normal;font-variant:normal;font-weight:normal;font-stretch:normal;font-size:34.28329849px;font-family:'Futura Hv BT';-inkscape-font-specification:'Futura Hv BT';fill:#ba0c2f"
       id="text3365"><path
         d="m 7.9849284,-4.4193314 2.9127416,0 q 4.118013,0 5.992881,-1.8748679 1.891608,-1.8748679 1.891608,-5.9426617 0,-4.051054 -1.891608,-5.925922 -1.874868,-1.891607 -5.992881,-1.891607 l -2.9127416,0 0,15.6350586 z M 2.7453423,0 l 0,-24.507202 6.6792168,0 q 3.9506149,0 6.2272399,0.552417 2.276625,0.552416 4.000834,1.841388 2.226406,1.657249 3.364718,4.184973 1.155053,2.510984 1.155053,5.725043 0,3.2642788 -1.171793,5.7920024 -1.171792,2.5109838 -3.431677,4.1514932 -1.67399,1.2052722 -3.732996,1.74094875 Q 13.793671,0 9.8430564,0 L 7.9849284,0 2.7453423,0 Z"
         style="font-style:normal;font-variant:normal;font-weight:normal;font-stretch:normal;font-size:34.28329849px;font-family:'Futura Hv BT';-inkscape-font-specification:'Futura Hv BT';fill:#ba0c2f"
         id="path4219"
         inkscape:connector-curvature="0" /></g><g
       transform="matrix(1,0,0,1.0443,379.2275,235.7627)"
       style="font-style:normal;font-variant:normal;font-weight:normal;font-stretch:normal;font-size:34.28329849px;font-family:'Futura Hv BT';-inkscape-font-specification:'Futura Hv BT';fill:#ba0c2f"
       id="text3367"><path
         d="m 22.481675,-18.129303 q -1.59029,-1.422891 -3.264279,-2.075746 -1.673989,-0.669596 -3.582337,-0.669596 -3.917135,0 -6.2439797,2.343585 -2.3268449,2.343585 -2.3268449,6.294199 0,3.8669151 2.159446,6.1435404 2.1594456,2.2598854 5.8924416,2.2598854 2.125967,0 3.950615,-0.7030755 1.824648,-0.7198153 3.381458,-2.1427061 l -0.03348,5.3735052 q -1.673989,0.98765366 -3.515377,1.47311052 -1.824648,0.48545686 -3.850175,0.48545686 -5.8589624,0 -9.625438,-3.63255648 -3.7497358,-3.6492965 -3.7497358,-9.2571603 0,-5.591124 3.7664756,-9.22368 3.7664757,-3.632557 9.7091372,-3.632557 1.992047,0 3.850175,0.418497 1.858128,0.418498 3.666037,1.288972 l -0.184139,5.256326 z"
         style="font-style:normal;font-variant:normal;font-weight:normal;font-stretch:normal;font-size:34.28329849px;font-family:'Futura Hv BT';-inkscape-font-specification:'Futura Hv BT';fill:#ba0c2f"
         id="path4216"
         inkscape:connector-curvature="0" /></g><g
       transform="matrix(1,0,0,1.0443,414.2646,235.7627)"
       style="font-style:normal;font-variant:normal;font-weight:normal;font-stretch:normal;font-size:34.28329849px;font-family:'Futura Hv BT';-inkscape-font-specification:'Futura Hv BT';fill:#ba0c2f"
       id="text3369"><path
         d="m 2.8457816,0 0,-24.507202 5.2395862,0 0,24.507202 -5.2395862,0 z"
         style="font-style:normal;font-variant:normal;font-weight:normal;font-stretch:normal;font-size:34.28329849px;font-family:'Futura Hv BT';-inkscape-font-specification:'Futura Hv BT';fill:#ba0c2f"
         id="path4213"
         inkscape:connector-curvature="0" /></g><g
       transform="matrix(1,0,0,1.0443,434.0811,235.7627)"
       style="font-style:normal;font-variant:normal;font-weight:normal;font-stretch:normal;font-size:34.28329849px;font-family:'Futura Hv BT';-inkscape-font-specification:'Futura Hv BT';fill:#ba0c2f"
       id="text3371"><path
         d="m 11.902063,-20.05439 0,20.05439 -5.2563259,0 0,-20.05439 -5.99288132,0 0,-4.452812 17.27556822,0 0,4.452812 -6.026361,0 z"
         style="font-style:normal;font-variant:normal;font-weight:normal;font-stretch:normal;font-size:34.28329849px;font-family:'Futura Hv BT';-inkscape-font-specification:'Futura Hv BT';fill:#ba0c2f"
         id="path4210"
         inkscape:connector-curvature="0" /></g><g
       transform="matrix(1,0,0,1.0443,465.3115,235.7627)"
       style="font-style:normal;font-variant:normal;font-weight:normal;font-stretch:normal;font-size:34.28329849px;font-family:'Futura Hv BT';-inkscape-font-specification:'Futura Hv BT';fill:#ba0c2f"
       id="text3373"><path
         d="m 7.7840497,0 0,-11.182248 -8.30298635,-13.324954 6.14354035,0 3.6325565,6.712697 q 0.2678383,0.502197 0.5524164,1.272232 0.2845784,0.770035 0.5858964,1.774428 0.234358,-0.853734 0.518936,-1.607029 0.301319,-0.753295 0.669596,-1.473111 l 3.599077,-6.679217 6.11006,0 -8.269506,13.324954 0,11.182248 -5.2395863,0 z"
         style="font-style:normal;font-variant:normal;font-weight:normal;font-stretch:normal;font-size:34.28329849px;font-family:'Futura Hv BT';-inkscape-font-specification:'Futura Hv BT';fill:#ba0c2f"
         id="path4207"
         inkscape:connector-curvature="0" /></g><g
       transform="matrix(1,0,0,1.0443,518.2783,235.7627)"
       style="font-style:normal;font-variant:normal;font-weight:normal;font-stretch:normal;font-size:34.28329849px;font-family:'Futura Hv BT';-inkscape-font-specification:'Futura Hv BT';fill:#ba0c2f"
       id="text3375"><path
         d="m 27.83844,-12.203381 q 0,2.6281629 -0.987653,4.9717477 -0.970914,2.3435849 -2.812302,4.1180134 -1.908348,1.8246482 -4.302153,2.79556196 -2.393804,0.97091372 -4.955008,0.97091372 -2.243145,0 -4.402591,-0.75329513 Q 8.2360268,-0.87047438 6.4448584,-2.2933652 4.1347533,-4.1347533 2.8960013,-6.6959567 1.6739892,-9.2571602 1.6739892,-12.203381 q 0,-2.644903 0.9709137,-4.955008 0.9709137,-2.326845 2.8457816,-4.134753 1.8413881,-1.791169 4.2686724,-2.778822 2.4440241,-0.987654 5.0219671,-0.987654 2.561204,0 4.971748,0.987654 2.427285,0.987653 4.285413,2.778822 1.858128,1.807908 2.829041,4.134753 0.970914,2.326845 0.970914,4.955008 z m -13.057116,8.185807 q 3.331239,0 5.490685,-2.326845 2.176186,-2.3435849 2.176186,-5.858962 0,-3.481898 -2.192926,-5.858962 -2.192926,-2.377065 -5.473945,-2.377065 -3.331238,0 -5.5241638,2.377065 -2.1929258,2.360324 -2.1929258,5.858962 0,3.5488569 2.159446,5.8757019 2.1594456,2.3101051 5.5576436,2.3101051 z"
         style="font-style:normal;font-variant:normal;font-weight:normal;font-stretch:normal;font-size:34.28329849px;font-family:'Futura Hv BT';-inkscape-font-specification:'Futura Hv BT';fill:#ba0c2f"
         id="path4204"
         inkscape:connector-curvature="0" /></g><g
       transform="matrix(1,0,0,1.0443,555.2354,235.7627)"
       style="font-style:normal;font-variant:normal;font-weight:normal;font-stretch:normal;font-size:34.28329849px;font-family:'Futura Hv BT';-inkscape-font-specification:'Futura Hv BT';fill:#ba0c2f"
       id="text3377"><path
         d="m 2.7453423,0 0,-24.507202 14.4297867,0 0,4.419332 -9.1902006,0 0,5.038707 9.1902006,0 0,4.452811 -9.1902006,0 0,10.596352 -5.2395861,0 z"
         style="font-style:normal;font-variant:normal;font-weight:normal;font-stretch:normal;font-size:34.28329849px;font-family:'Futura Hv BT';-inkscape-font-specification:'Futura Hv BT';fill:#ba0c2f"
         id="path4201"
         inkscape:connector-curvature="0" /></g><g
       transform="scale(0.97855976,1.02191)"
       style="font-style:normal;font-variant:normal;font-weight:normal;font-stretch:normal;font-size:35.0344429px;font-family:'Futura Hv BT';-inkscape-font-specification:'Futura Hv BT';fill:#ba0c2f"
       id="text3379"><path
         d="m 629.7695,226.19174 2.97656,0 q 4.20823,0 6.12418,-1.91594 1.93305,-1.91595 1.93305,-6.07287 0,-4.13981 -1.93305,-6.05576 -1.91595,-1.93305 -6.12418,-1.93305 l -2.97656,0 0,15.97762 z m -5.35439,4.51616 0,-25.04415 6.82556,0 q 4.03717,0 6.36368,0.56452 2.3265,0.56452 4.08849,1.88173 2.27519,1.69356 3.43844,4.27667 1.18036,2.566 1.18036,5.85047 0,3.3358 -1.19747,5.91891 -1.19746,2.566 -3.50686,4.24245 -1.71067,1.23168 -3.81479,1.77909 -2.08701,0.53031 -6.12418,0.53031 l -1.89884,0 -5.35439,0 z"
         style="font-style:normal;font-variant:normal;font-weight:normal;font-stretch:normal;font-size:35.0344429px;font-family:'Futura Hv BT';-inkscape-font-specification:'Futura Hv BT';fill:#ba0c2f"
         id="path4198"
         inkscape:connector-curvature="0" /></g><g
       transform="scale(0.97855976,1.02191)"
       style="font-style:normal;font-variant:normal;font-weight:normal;font-stretch:normal;font-size:35.0344429px;font-family:'Futura Hv BT';-inkscape-font-specification:'Futura Hv BT';fill:#ba0c2f"
       id="text3381"><path
         d="m 671.78766,221.17949 -2.80549,-8.09145 q -0.11975,-0.35924 -0.30792,-1.23168 -0.18817,-0.87244 -0.39345,-2.13833 -0.22239,1.21457 -0.42767,2.18965 -0.20528,0.95797 -0.30792,1.283 l -2.70285,7.98881 6.9453,0 z m -15.94341,9.52841 9.52841,-25.04415 6.12419,0 9.66526,25.04415 -6.08997,0 -2.03569,-5.32017 -9.69948,0 -1.74488,5.32017 -5.74784,0 z"
         style="font-style:normal;font-variant:normal;font-weight:normal;font-stretch:normal;font-size:35.0344429px;font-family:'Futura Hv BT';-inkscape-font-specification:'Futura Hv BT';fill:#ba0c2f"
         id="path4195"
         inkscape:connector-curvature="0" /></g><g
       transform="scale(0.97855976,1.02191)"
       style="font-style:normal;font-variant:normal;font-weight:normal;font-stretch:normal;font-size:35.0344429px;font-family:'Futura Hv BT';-inkscape-font-specification:'Futura Hv BT';fill:#ba0c2f"
       id="text3383"><path
         d="m 698.16989,230.7079 -9.25471,-25.04415 5.91891,0 4.8754,15.61838 q 0.13685,0.47899 0.42766,1.77909 0.29082,1.30011 0.61584,2.95946 0.22239,-1.60803 0.47899,-2.85682 0.27371,-1.24878 0.53031,-2.0528 l 4.94382,-15.44731 5.85048,0 -9.32313,25.04415 -5.06357,0 z"
         style="font-style:normal;font-variant:normal;font-weight:normal;font-stretch:normal;font-size:35.0344429px;font-family:'Futura Hv BT';-inkscape-font-specification:'Futura Hv BT';fill:#ba0c2f"
         id="path4192"
         inkscape:connector-curvature="0" /></g><g
       transform="scale(0.97855976,1.02191)"
       style="font-style:normal;font-variant:normal;font-weight:normal;font-stretch:normal;font-size:35.0344429px;font-family:'Futura Hv BT';-inkscape-font-specification:'Futura Hv BT';fill:#ba0c2f"
       id="text3385"><path
         d="m 725.80468,230.7079 0,-25.04415 5.35438,0 0,25.04415 -5.35438,0 z"
         style="font-style:normal;font-variant:normal;font-weight:normal;font-stretch:normal;font-size:35.0344429px;font-family:'Futura Hv BT';-inkscape-font-specification:'Futura Hv BT';fill:#ba0c2f"
         id="path4189"
         inkscape:connector-curvature="0" /></g><g
       transform="scale(0.97855976,1.02191)"
       style="font-style:normal;font-variant:normal;font-weight:normal;font-stretch:normal;font-size:35.0344429px;font-family:'Futura Hv BT';-inkscape-font-specification:'Futura Hv BT';fill:#ba0c2f"
       id="text3387"><path
         d="m 744.34462,227.52606 2.97656,-3.37001 q 0.56452,1.38564 1.81331,2.18965 1.24878,0.78691 2.80549,0.78691 1.88173,0 2.97656,-0.88955 1.09483,-0.88954 1.09483,-2.39493 0,-1.77909 -3.64372,-3.54108 -1.18036,-0.56452 -1.86463,-0.92376 -3.28448,-1.71067 -4.55037,-3.3358 -1.26589,-1.64224 -1.26589,-3.90032 0,-3.0963 2.44625,-5.08068 2.46336,-2.00147 6.38078,-2.00147 2.27519,0 3.91743,0.80401 1.65934,0.7869 2.92524,2.48046 l -3.16474,3.02788 q -0.56451,-1.09482 -1.50538,-1.62513 -0.92376,-0.54741 -2.24097,-0.54741 -1.59092,0 -2.566,0.80401 -0.97508,0.78691 -0.97508,2.0528 0,1.98437 3.8661,3.62661 0.7698,0.32503 1.18036,0.5132 3.18184,1.45407 4.70433,3.28448 1.5396,1.83041 1.5396,4.17403 0,3.52397 -2.41204,5.62809 -2.39493,2.08701 -6.44921,2.08701 -2.87392,0 -4.92672,-0.99219 -2.05279,-0.99218 -3.06209,-2.85681 z"
         style="font-style:normal;font-variant:normal;font-weight:normal;font-stretch:normal;font-size:35.0344429px;font-family:'Futura Hv BT';-inkscape-font-specification:'Futura Hv BT';fill:#ba0c2f"
         id="path4186"
         inkscape:connector-curvature="0" /></g><path
       style="fill:#ba0c2f"
       d="m 151.7,345.20001 507.20001,0 0,8.6 -507.20001,0 z"
       id="rect3389"
       inkscape:connector-curvature="0" /><flowRoot
       xml:space="preserve"
       id="flowRoot4159"
       style="font-style:normal;font-weight:normal;font-size:40px;line-height:125%;font-family:sans-serif;letter-spacing:0px;word-spacing:0px;fill:#000000;fill-opacity:1;stroke:none;stroke-width:1px;stroke-linecap:butt;stroke-linejoin:miter;stroke-opacity:1"><flowRegion
         id="flowRegion4161"><rect
           id="rect4163"
           width="170.96774"
           height="40.322582"
           x="564.51611"
           y="-12.918069" /></flowRegion><flowPara
         id="flowPara4165" /></flowRoot><flowRoot
       xml:space="preserve"
       id="flowRoot4167"
       style="font-style:normal;font-weight:normal;font-size:40px;line-height:125%;font-family:sans-serif;letter-spacing:0px;word-spacing:0px;fill:#000000;fill-opacity:1;stroke:none;stroke-width:1px;stroke-linecap:butt;stroke-linejoin:miter;stroke-opacity:1"><flowRegion
         id="flowRegion4169"><rect
           id="rect4171"
           width="187.09677"
           height="50"
           x="566.12903"
           y="-14.530972" /></flowRegion><flowPara
         id="flowPara4173" /></flowRoot><flowRoot
       xml:space="preserve"
       id="flowRoot4168"
       style="font-style:normal;font-weight:normal;font-size:40px;line-height:125%;font-family:sans-serif;letter-spacing:0px;word-spacing:0px;fill:#000000;fill-opacity:1;stroke:none;stroke-width:1px;stroke-linecap:butt;stroke-linejoin:miter;stroke-opacity:1"><flowRegion
         id="flowRegion4170"><rect
           id="rect4172"
           width="1085.4839"
           height="450"
           x="-243.54839"
           y="-70.982582" /></flowRegion><flowPara
         id="flowPara4174" /></flowRoot><flowRoot
       xml:space="preserve"
       id="flowRoot4176"
       style="font-style:normal;font-weight:normal;font-size:40px;line-height:125%;font-family:sans-serif;letter-spacing:0px;word-spacing:0px;fill:#000000;fill-opacity:1;stroke:none;stroke-width:1px;stroke-linecap:butt;stroke-linejoin:miter;stroke-opacity:1"><flowRegion
         id="flowRegion4178"><rect
           id="rect4180"
           width="1075.8064"
           height="422.58066"
           x="-182.25807"
           y="-70.982582" /></flowRegion><flowPara
         id="flowPara4182" /></flowRoot></g></svg>