<?xml version="1.0" encoding="utf-8"?>
<!-- Generator: Adobe Illustrator 23.0.1, SVG Export Plug-In . SVG Version: 6.00 Build 0)  -->
<svg version="1.1" id="Layer_1" xmlns="http://www.w3.org/2000/svg" xmlns:xlink="http://www.w3.org/1999/xlink" x="0px" y="0px"
	 viewBox="0 0 500 500" style="enable-background:new 0 0 500 500;" xml:space="preserve">
<style type="text/css">
	.st0{clip-path:url(#SVGID_2_);}
	.st1{clip-path:url(#SVGID_4_);}
	.st2{fill:#EE3145;}
	.st3{fill:#FFFFFF;}
	.st4{fill:none;stroke:#1D184B;stroke-width:12;stroke-miterlimit:10;}
	.st5{fill:#FFFFFF;stroke:#1D184B;stroke-width:12;stroke-miterlimit:10;}
	.st6{fill:#1D184B;}
	.st7{fill:none;stroke:#1D184B;stroke-miterlimit:10;}
	.st8{fill:#ED3045;}
	.st9{fill:none;stroke:#1D184B;stroke-width:3;stroke-miterlimit:10;}
	.st10{fill:none;stroke:#1D184B;stroke-width:4;stroke-miterlimit:10;}
	.st11{fill:none;stroke:#1D184B;stroke-width:2;stroke-miterlimit:10;}
	.st12{fill:none;}
	.st13{fill:none;stroke:#1D184B;stroke-width:9;stroke-miterlimit:10;}
	.st14{fill:none;stroke:#1D184B;stroke-width:5;stroke-miterlimit:10;}
	.st15{fill:#FFFFFF;stroke:#1D184B;stroke-width:5;stroke-miterlimit:10;}
	.st16{fill:none;stroke:#1D184B;stroke-width:7;stroke-miterlimit:10;}
	.st17{font-family:'Liquorstore-Regular';}
	.st18{font-size:89.9773px;}
	.st19{fill:#FFFFFF;stroke:#1D184B;stroke-width:2;stroke-miterlimit:10;}
	.st20{fill:none;stroke:#1D184B;stroke-width:13;stroke-miterlimit:10;}
</style>
<g>
	<circle class="st2" cx="257.6" cy="248.7" r="218.12"/>
	<circle class="st3" cx="257.6" cy="248.7" r="181.25"/>
</g>
<circle class="st4" cx="247.99" cy="241.04" r="181.25"/>
<circle class="st4" cx="247.99" cy="241.04" r="218.12"/>
<g>
	<text transform="matrix(1 0 0 1 151.4711 182.1792)" class="st2 st17 st18">J LINE </text>
	<text transform="matrix(1 0 0 1 131.6069 268.2554)" class="st2 st17 st18">W LINE</text>
	<text transform="matrix(1 0 0 1 151.4711 355.6401)" class="st2 st17 st18">V LINE</text>
</g>
<g>
	<text transform="matrix(1 0 0 1 148.4143 178.7183)" class="st9 st17 st18">J LINE </text>
</g>
<g>
	<text transform="matrix(1 0 0 1 128.55 264.7944)" class="st9 st17 st18">W LINE</text>
</g>
<g>
	<text transform="matrix(1 0 0 1 148.4143 352.1792)" class="st9 st17 st18">V LINE</text>
</g>
<path class="st2" d="M364.39,241.04H126.41c-3.48,0-6.31-2.82-6.31-6.31v-3.97c0-3.48,2.82-6.31,6.31-6.31h237.98
	c3.48,0,6.31,2.82,6.31,6.31v3.97C370.69,238.21,367.87,241.04,364.39,241.04z"/>
<path class="st9" d="M359.14,241.04H121.16c-3.48,0-6.31-2.82-6.31-6.31v-3.97c0-3.48,2.82-6.31,6.31-6.31h237.98
	c3.48,0,6.31,2.82,6.31,6.31v3.97C365.45,238.21,362.62,241.04,359.14,241.04z"/>
<path class="st2" d="M354.89,155.57H150.47c-3.48,0-6.31-2.82-6.31-6.31v-3.97c0-3.48,2.82-6.31,6.31-6.31h204.42
	c3.48,0,6.31,2.82,6.31,6.31v3.97C361.19,152.74,358.37,155.57,354.89,155.57z"/>
<path class="st9" d="M350.34,155.57H145.92c-3.48,0-6.31-2.82-6.31-6.31v-3.97c0-3.48,2.82-6.31,6.31-6.31h204.42
	c3.48,0,6.31,2.82,6.31,6.31v3.97C356.65,152.74,353.82,155.57,350.34,155.57z"/>
<path class="st2" d="M378.99,326.51H131.81c-3.48,0-6.31-2.82-6.31-6.31v-3.97c0-3.48,2.82-6.31,6.31-6.31h247.18
	c3.48,0,6.31,2.82,6.31,6.31v3.97C385.29,323.68,382.47,326.51,378.99,326.51z"/>
<path class="st9" d="M373.55,326.51H126.37c-3.48,0-6.31-2.82-6.31-6.31v-3.97c0-3.48,2.82-6.31,6.31-6.31h247.18
	c3.48,0,6.31,2.82,6.31,6.31v3.97C379.85,323.68,377.03,326.51,373.55,326.51z"/>
</svg>
