<?xml version="1.0" encoding="utf-8"?>
<!-- Generator: Adobe Illustrator 23.0.1, SVG Export Plug-In . SVG Version: 6.00 Build 0)  -->
<svg version="1.1" id="Layer_1" xmlns="http://www.w3.org/2000/svg" xmlns:xlink="http://www.w3.org/1999/xlink" x="0px" y="0px"
	 viewBox="0 0 500 500" style="enable-background:new 0 0 500 500;" xml:space="preserve">
<style type="text/css">
	.st0{clip-path:url(#SVGID_2_);}
	.st1{clip-path:url(#SVGID_4_);}
	.st2{fill:#EE3145;}
	.st3{fill:#FFFFFF;}
	.st4{fill:none;stroke:#1D184B;stroke-width:12;stroke-miterlimit:10;}
	.st5{fill:#FFFFFF;stroke:#1D184B;stroke-width:12;stroke-miterlimit:10;}
	.st6{fill:#1D184B;}
	.st7{fill:none;stroke:#1D184B;stroke-miterlimit:10;}
	.st8{fill:#ED3045;}
	.st9{fill:none;stroke:#1D184B;stroke-width:3;stroke-miterlimit:10;}
	.st10{fill:none;stroke:#1D184B;stroke-width:4;stroke-miterlimit:10;}
	.st11{fill:none;stroke:#1D184B;stroke-width:2;stroke-miterlimit:10;}
	.st12{fill:none;}
	.st13{fill:none;stroke:#1D184B;stroke-width:9;stroke-miterlimit:10;}
	.st14{fill:none;stroke:#1D184B;stroke-width:5;stroke-miterlimit:10;}
	.st15{fill:#FFFFFF;stroke:#1D184B;stroke-width:5;stroke-miterlimit:10;}
	.st16{fill:none;stroke:#1D184B;stroke-width:7;stroke-miterlimit:10;}
	.st17{fill:#FFFFFF;stroke:#1D184B;stroke-width:2;stroke-miterlimit:10;}
	.st18{fill:none;stroke:#1D184B;stroke-width:13;stroke-miterlimit:10;}
</style>
<g>
	<circle class="st2" cx="260.87" cy="256.72" r="218.12"/>
	<circle class="st3" cx="260.87" cy="256.72" r="181.25"/>
</g>
<circle class="st4" cx="250" cy="246.17" r="218.12"/>
<polygon class="st6" points="83.17,317.12 416.83,317.12 401.03,346.39 111.56,358.39 "/>
<g>
	<path class="st8" d="M194.4,217.87l107.79,2.22c23.89,0.49,23.88,32.63,23.46,41.11c-0.06,1.15-0.99,2.05-2.14,2.06l-12.08,0.17
		c-1.17,0.02-2.12,0.96-2.14,2.13l-0.35,16.92c-0.02,1.2,0.93,2.2,2.13,2.22l11.83,0.24c1.2,0.02,2.16,1.02,2.13,2.22l-0.43,20.89
		c-0.02,1.2-1.02,2.16-2.22,2.13l-2.73-0.06c-0.34-2.46-2.42-4.38-4.98-4.43c-2.56-0.05-4.72,1.78-5.16,4.22l-91.47-1.88
		c-0.26-2.55-2.38-4.56-5.01-4.61c-2.63-0.05-4.83,1.87-5.19,4.4l-30.34-0.62c-1.2-0.02-2.16-1.02-2.13-2.22l1.44-70.2
		C176.98,225.24,184.87,217.67,194.4,217.87z"/>
	<g>
		<g>
			<path class="st6" d="M287.9,283.25l0.37-18.11c0.04-2.01,1.71-3.62,3.73-3.58l11.59,0.24c2.01,0.04,3.62,1.71,3.58,3.73
				l-0.37,18.11c-0.04,2.01-1.71,3.62-3.73,3.58l-11.59-0.24C289.46,286.93,287.86,285.26,287.9,283.25z M291.94,264.79
				c-0.23,0-0.43,0.18-0.43,0.42l-0.37,18.11c0,0.23,0.18,0.43,0.42,0.43l11.59,0.24c0.24,0,0.43-0.18,0.43-0.42l0.37-18.11
				c0-0.23-0.18-0.43-0.42-0.43L291.94,264.79z"/>
		</g>
	</g>
	<g>
		<g>
			<path class="st6" d="M266.16,282.8l0.37-18.11c0.04-2.01,1.71-3.62,3.73-3.58l11.59,0.24c2.01,0.04,3.62,1.71,3.58,3.73
				l-0.37,18.11c-0.04,2.01-1.71,3.62-3.73,3.58l-11.59-0.24C267.73,286.49,266.12,284.81,266.16,282.8z M270.2,264.34
				c-0.23,0-0.43,0.18-0.43,0.42l-0.37,18.11c0,0.23,0.18,0.43,0.42,0.43l11.59,0.24c0.23,0,0.43-0.18,0.43-0.42l0.37-18.11
				c0-0.23-0.18-0.43-0.42-0.43L270.2,264.34z"/>
		</g>
	</g>
	<g>
		<g>
			<path class="st6" d="M243.88,282.34l0.37-18.11c0.04-2.01,1.71-3.62,3.73-3.58l11.59,0.24c2.01,0.04,3.62,1.71,3.58,3.73
				l-0.37,18.11c-0.04,2.01-1.71,3.62-3.73,3.58l-11.59-0.24C245.44,286.03,243.84,284.36,243.88,282.34z M247.91,263.88
				c-0.23,0-0.43,0.18-0.43,0.42l-0.37,18.11c0,0.23,0.18,0.43,0.42,0.43l11.59,0.24c0.23,0,0.43-0.18,0.43-0.42l0.37-18.11
				c0-0.23-0.18-0.43-0.42-0.43L247.91,263.88z"/>
		</g>
	</g>
	<g>
		<g>
			<path class="st6" d="M222.14,281.89l0.37-18.11c0.04-2.01,1.71-3.62,3.73-3.58l11.59,0.24c2.01,0.04,3.62,1.71,3.58,3.73
				l-0.37,18.11c-0.04,2.01-1.71,3.62-3.73,3.58l-11.59-0.24C223.7,285.58,222.1,283.91,222.14,281.89z M226.18,263.43
				c-0.23,0-0.43,0.18-0.43,0.42l-0.37,18.11c0,0.23,0.18,0.43,0.42,0.43l11.59,0.24c0.23,0,0.43-0.18,0.43-0.42l0.37-18.11
				c0-0.23-0.18-0.43-0.42-0.43L226.18,263.43z"/>
		</g>
	</g>
	<g>
		<g>
			<path class="st6" d="M299.35,243.2l0.19-9.29c0.04-1.85,1.57-3.32,3.42-3.29l14.58,0.3c2.6,0.05,4.67,2.21,4.62,4.81l-0.16,7.93
				c-0.04,1.85-1.57,3.32-3.42,3.29l-15.94-0.33C300.78,246.58,299.31,245.05,299.35,243.2z M302.91,233.42
				c-0.3-0.01-0.56,0.24-0.56,0.54l-0.19,9.29c-0.01,0.3,0.24,0.56,0.54,0.56l15.94,0.33c0.3,0.01,0.56-0.24,0.56-0.54l0.16-7.93
				c0.02-1.05-0.82-1.93-1.87-1.95L302.91,233.42z"/>
		</g>
	</g>
	<g>
		<g>
			<path class="st6" d="M271.8,242.54l0.19-9.12c0.04-1.9,1.61-3.41,3.51-3.37l15.77,0.32c1.9,0.04,3.41,1.61,3.37,3.51l-0.19,9.12
				c-0.04,1.9-1.61,3.41-3.51,3.37l-15.77-0.32C273.27,246.01,271.76,244.44,271.8,242.54z M275.44,232.86
				c-0.35-0.01-0.64,0.27-0.65,0.63l-0.19,9.12c-0.01,0.35,0.27,0.64,0.63,0.65l15.77,0.32c0.35,0.01,0.64-0.27,0.65-0.63l0.19-9.12
				c0.01-0.35-0.27-0.64-0.62-0.65L275.44,232.86z"/>
		</g>
	</g>
	<g>
		<g>
			<path class="st6" d="M243.56,241.96l0.19-9.12c0.04-1.9,1.61-3.41,3.51-3.37l15.77,0.32c1.9,0.04,3.41,1.61,3.37,3.51l-0.19,9.12
				c-0.04,1.9-1.61,3.41-3.51,3.37l-15.77-0.32C245.03,245.43,243.52,243.86,243.56,241.96z M247.2,232.27
				c-0.35-0.01-0.64,0.27-0.65,0.63l-0.19,9.12c-0.01,0.35,0.27,0.64,0.63,0.65l15.77,0.32c0.35,0.01,0.64-0.27,0.65-0.63l0.19-9.12
				c0.01-0.35-0.27-0.64-0.62-0.65L247.2,232.27z"/>
		</g>
	</g>
	<path class="st6" d="M319.68,310.94c0.01-0.49-0.05-0.97-0.17-1.43l14.02,0.29c1.02,0.02,1.82,0.86,1.8,1.88
		c-0.02,1.02-0.86,1.82-1.88,1.8l-14.34-0.3C319.46,312.51,319.67,311.75,319.68,310.94z"/>
	<g>
		<g>
			<path class="st6" d="M216.01,241.39l0.19-9.12c0.04-1.9,1.61-3.41,3.51-3.37l15.77,0.32c1.9,0.04,3.41,1.61,3.37,3.51l-0.19,9.12
				c-0.04,1.9-1.61,3.41-3.51,3.37l-15.77-0.32C217.48,244.87,215.97,243.29,216.01,241.39z M219.65,231.71
				c-0.35-0.01-0.64,0.27-0.65,0.63l-0.19,9.12c-0.01,0.35,0.27,0.64,0.62,0.65l15.77,0.32c0.35,0.01,0.64-0.27,0.65-0.63l0.19-9.12
				c0.01-0.35-0.27-0.64-0.63-0.65L219.65,231.71z"/>
		</g>
	</g>
	<g>
		<g>
			<path class="st6" d="M188.73,240.92l0.16-7.93c0.05-2.6,2.21-4.67,4.81-4.62l14.58,0.3c1.85,0.04,3.32,1.57,3.29,3.42l-0.19,9.29
				c-0.04,1.85-1.57,3.32-3.42,3.29l-15.94-0.33C190.17,244.3,188.7,242.77,188.73,240.92z M193.65,231.17
				c-1.05-0.02-1.93,0.82-1.95,1.87l-0.16,7.93c-0.01,0.3,0.24,0.56,0.54,0.56l15.94,0.33c0.31,0.01,0.56-0.24,0.56-0.54l0.19-9.29
				c0.01-0.3-0.24-0.56-0.54-0.56L193.65,231.17z"/>
		</g>
	</g>
	<g>
		<g>
			<path class="st6" d="M226.12,300.94l73.41,1.51c0.77,0.02,1.41-0.6,1.43-1.37c0.02-0.77-0.6-1.41-1.37-1.43l-73.41-1.51
				c-0.77-0.02-1.41,0.6-1.43,1.37C224.73,300.29,225.34,300.93,226.12,300.94z"/>
		</g>
	</g>
	<g>
		<g>
			<path class="st6" d="M189.91,251.88l134.28,2.76c0.77,0.02,1.41-0.6,1.43-1.37s-0.6-1.41-1.37-1.43l-134.28-2.76
				c-0.77-0.02-1.41,0.6-1.43,1.37C188.52,251.22,189.14,251.86,189.91,251.88z"/>
		</g>
	</g>
	<g>
		<g>
			<path class="st6" d="M193.24,309.77c0.89,0.02,1.63-0.69,1.65-1.58l0.96-46.42c0.02-0.89-0.69-1.63-1.58-1.65
				c-0.89-0.02-1.63,0.69-1.65,1.58l-0.96,46.42C191.64,309.01,192.35,309.75,193.24,309.77z"/>
		</g>
	</g>
	<path class="st6" d="M303.08,310.54c-0.13,6.33,4.89,11.56,11.22,11.69c6.33,0.13,11.56-4.89,11.69-11.22
		c0.13-6.33-4.89-11.56-11.22-11.69C308.45,299.19,303.21,304.21,303.08,310.54z M309.4,310.72c0.06-2.84,2.41-5.1,5.25-5.04
		c2.84,0.06,5.1,2.41,5.04,5.25c-0.06,2.84-2.41,5.1-5.25,5.04C311.59,315.92,309.34,313.56,309.4,310.72z"/>
	<path class="st6" d="M201.44,308.32c-0.13,6.33,4.89,11.56,11.22,11.69c6.33,0.13,11.56-4.89,11.69-11.22
		c0.13-6.33-4.89-11.56-11.22-11.69C206.8,296.97,201.57,301.99,201.44,308.32z M207.75,308.45c0.06-2.84,2.41-5.1,5.25-5.04
		c2.84,0.06,5.1,2.41,5.04,5.25c-0.06,2.84-2.41,5.1-5.25,5.04C209.95,313.64,207.69,311.29,207.75,308.45z"/>
	<g>
		<path class="st6" d="M217.75,310.27c0.18-0.5,0.28-1.04,0.3-1.61c0.01-0.56-0.07-1.11-0.23-1.62l91.95,1.89
			c-0.22,0.56-0.35,1.16-0.37,1.79c-0.01,0.5,0.05,0.98,0.18,1.44L217.75,310.27z"/>
		<path class="st6" d="M200.37,217.01l107.79,2.22c6.39,0.13,11.7,2.41,15.77,6.78c9.47,10.16,9.63,28.57,9.27,36.02
			c-0.1,1.99-1.74,3.57-3.73,3.6l-12.08,0.17c-0.3,0-0.55,0.25-0.55,0.55l-0.35,16.92c-0.01,0.31,0.24,0.57,0.55,0.57l11.83,0.24
			c2.09,0.04,3.75,1.78,3.71,3.87l-0.43,20.89c-0.04,2.09-1.78,3.75-3.87,3.71l-8.82-0.18c0.14-0.45,0.23-0.93,0.24-1.43
			c0.01-0.63-0.09-1.24-0.29-1.8l8.94,0.18c0.31,0.01,0.57-0.24,0.57-0.55l0.43-20.89c0.01-0.31-0.24-0.57-0.55-0.57l-11.83-0.24
			c-2.09-0.04-3.75-1.78-3.71-3.87l0.35-16.92c0.04-2.05,1.68-3.68,3.74-3.71l12.08-0.17c0.3,0,0.54-0.23,0.55-0.53
			c0.27-5.49,0.47-24.14-8.4-33.65c-3.46-3.71-7.99-5.64-13.48-5.76l-107.79-2.22c-8.63-0.18-15.79,6.7-15.97,15.32l-1.44,70.2
			c-0.01,0.31,0.24,0.57,0.55,0.57l24.6,0.51c-0.18,0.5-0.28,1.04-0.3,1.61c-0.01,0.56,0.07,1.11,0.23,1.62l-24.6-0.51
			c-2.09-0.04-3.75-1.78-3.71-3.87l1.44-70.2C181.33,225.09,189.97,216.8,200.37,217.01z"/>
	</g>
	<g>
		<path class="st6" d="M217.37,311.09c0.41-0.72,0.65-1.55,0.67-2.43c0.01-0.43-0.04-0.84-0.13-1.24l91.72,1.89
			c-0.14,0.45-0.22,0.92-0.23,1.42c-0.02,0.81,0.16,1.58,0.48,2.27L217.37,311.09z"/>
		<path class="st6" d="M176.77,306.57l31.17,0.64c-0.11,0.4-0.17,0.81-0.18,1.24c-0.02,0.88,0.19,1.72,0.57,2.46l-31.63-0.65
			c-1.02-0.02-1.82-0.86-1.8-1.88S175.75,306.55,176.77,306.57z"/>
	</g>
	<path class="st6" d="M202.2,259.62c7.39,0.15,13.26,6.86,13.09,14.95l-0.6,29.16c-0.53-0.2-1.1-0.32-1.69-0.33
		c-0.6-0.01-1.17,0.08-1.71,0.26l0.6-29.16c0.13-6.22-4.25-11.37-9.76-11.48l-19.96-0.41l0.07-3.4L202.2,259.62z"/>
</g>
<g>
	<g>
		<path class="st6" d="M338.61,294.4c1.74-1.74,3.48-3.48,5.22-5.22c1.14-1.14-0.63-2.91-1.77-1.77c-1.74,1.74-3.48,3.48-5.22,5.22
			C335.7,293.77,337.47,295.54,338.61,294.4L338.61,294.4z"/>
	</g>
</g>
<g>
	<g>
		<path class="st6" d="M339.81,301.03c2.26,0,4.53,0,6.79,0c1.61,0,1.61-2.5,0-2.5c-2.26,0-4.53,0-6.79,0
			C338.2,298.53,338.2,301.03,339.81,301.03L339.81,301.03z"/>
	</g>
</g>
<g>
	<g>
		<path class="st6" d="M340.3,308.55c1.73,0.9,3.45,1.79,5.18,2.69c1.43,0.74,2.69-1.42,1.26-2.16c-1.73-0.9-3.45-1.79-5.18-2.69
			C340.14,305.65,338.87,307.81,340.3,308.55L340.3,308.55z"/>
	</g>
</g>
<path class="st2" d="M433.59,252.07c0,0-42.98,1.16-51.9,34.16c0,0-30.12-2.88-29,21.53h32.82c0,0,2.25-12.95,11.82-12.65
	c0,0,10.13-1.87,12.95,9.91h11.26L433.59,252.07z"/>
<path class="st11" d="M431.25,251.07c0,0-42.98,1.16-51.9,34.16c0,0-30.12-2.88-29,21.53h32.82c0,0,2.25-12.95,11.82-12.65
	c0,0,10.13-1.87,12.95,9.91h11.26L431.25,251.07z"/>
<circle class="st2" cx="398.12" cy="307.74" r="12.52"/>
<circle class="st11" cx="396.12" cy="307.18" r="12.52"/>
<path class="st17" d="M427.2,259.31c0,0-39.83,8.13-36.42,24.98h30.48L427.2,259.31z"/>
<circle class="st7" cx="396.12" cy="306.76" r="8.74"/>
<circle class="st7" cx="396.12" cy="306.76" r="3.31"/>
<path class="st2" d="M65.46,245.45c0,0,50.7,1.3,61.23,38.47c0,0,35.53-3.25,34.21,24.24h-38.71c0,0-2.66-14.58-13.95-14.25
	c0,0-11.96-2.1-15.28,11.16H79.68L65.46,245.45z"/>
<path class="st11" d="M68.22,244.32c0,0,50.7,1.3,61.23,38.47c0,0,35.53-3.25,34.21,24.24h-38.71c0,0-2.66-14.58-13.95-14.25
	c0,0-11.96-2.1-15.28,11.16H82.44L68.22,244.32z"/>
<ellipse class="st2" cx="107.3" cy="308.14" rx="14.77" ry="14.1"/>
<ellipse class="st11" cx="109.66" cy="307.51" rx="14.77" ry="14.1"/>
<path class="st17" d="M73,253.6c0,0,46.98,9.15,42.96,28.13H80L73,253.6z"/>
<ellipse class="st7" cx="109.66" cy="307.04" rx="10.3" ry="9.84"/>
<ellipse class="st7" cx="109.66" cy="307.04" rx="3.91" ry="3.73"/>
<circle class="st4" cx="250" cy="246.17" r="181.25"/>
</svg>
