<?xml version="1.0" encoding="utf-8"?>
<!-- Generator: Adobe Illustrator 23.0.1, SVG Export Plug-In . SVG Version: 6.00 Build 0)  -->
<svg version="1.1" id="Layer_1" xmlns="http://www.w3.org/2000/svg" xmlns:xlink="http://www.w3.org/1999/xlink" x="0px" y="0px"
	 viewBox="0 0 500 500" style="enable-background:new 0 0 500 500;" xml:space="preserve">
<style type="text/css">
	.st0{clip-path:url(#SVGID_2_);}
	.st1{clip-path:url(#SVGID_4_);}
	.st2{fill:#EE3145;}
	.st3{fill:#FFFFFF;}
	.st4{fill:none;stroke:#1D184B;stroke-width:12;stroke-miterlimit:10;}
	.st5{fill:#FFFFFF;stroke:#1D184B;stroke-width:12;stroke-miterlimit:10;}
	.st6{fill:#1D184B;}
	.st7{fill:none;stroke:#1D184B;stroke-miterlimit:10;}
	.st8{fill:#ED3045;}
	.st9{fill:none;}
	.st10{fill:none;stroke:#1D184B;stroke-width:3;stroke-miterlimit:10;}
	.st11{fill:none;stroke:#1D184B;stroke-width:4;stroke-miterlimit:10;}
	.st12{fill:none;stroke:#1D184B;stroke-width:2;stroke-miterlimit:10;}
	.st13{fill:none;stroke:#1D184B;stroke-width:9;stroke-miterlimit:10;}
	.st14{font-family:'Liquorstore-Regular';}
	.st15{font-size:57.2713px;}
	.st16{fill:none;stroke:#1D184B;stroke-width:5;stroke-miterlimit:10;}
	.st17{fill:#FFFFFF;stroke:#1D184B;stroke-width:5;stroke-miterlimit:10;}
	.st18{fill:none;stroke:#1D184B;stroke-width:7;stroke-miterlimit:10;}
	.st19{fill:#FFFFFF;stroke:#1D184B;stroke-width:2;stroke-miterlimit:10;}
	.st20{fill:none;stroke:#1D184B;stroke-width:13;stroke-miterlimit:10;}
</style>
<g>
	<circle class="st2" cx="264.42" cy="244.87" r="218.12"/>
	<circle class="st3" cx="264.42" cy="244.87" r="181.25"/>
</g>
<circle class="st2" cx="298.42" cy="224.68" r="71.84"/>
<circle class="st4" cx="254.81" cy="237.21" r="181.25"/>
<circle class="st4" cx="254.81" cy="237.21" r="218.12"/>
<rect x="366.87" y="264.91" transform="matrix(0.7071 -0.7071 0.7071 0.7071 -106.6286 358.2868)" class="st2" width="24.62" height="85.89"/>
<path class="st2" d="M334.22,323.2l-77.2,51.65c-8.59,5.75-20.22,3.45-25.97-5.15L136.63,228.6c-5.75-8.59-3.45-20.22,5.15-25.97
	l77.2-51.65c8.59-5.75,20.22-3.45,25.97,5.15l94.42,141.11C345.12,305.83,342.81,317.45,334.22,323.2z"/>
<path class="st13" d="M321.56,319.29l-77.2,51.65c-8.59,5.75-20.22,3.45-25.97-5.15l-94.42-141.11c-5.75-8.59-3.45-20.22,5.15-25.97
	l77.2-51.65c8.59-5.75,20.22-3.45,25.97,5.15l94.42,141.11C332.45,301.91,330.15,313.54,321.56,319.29z"/>
<g>
	<g>
		<path class="st6" d="M161.91,237.14c-2.09-9.32,11.15-11.88,17.18-14.58c6.53-2.93,9.38-8.06,13.95-13.19
			c5.11-5.73,13.29-5.29,19.45-9.41c5.09-3.4,8.61-8.23,10.73-13.92c1.12-3.02-3.71-4.32-4.82-1.33
			c-3.51,9.42-10.6,12.29-19.41,15.15c-7.3,2.37-10.22,7.48-15.01,13.02c-7.61,8.79-30.62,8.9-26.89,25.58
			C157.79,241.61,162.61,240.28,161.91,237.14L161.91,237.14z"/>
	</g>
</g>
<g>
	<g>
		<path class="st6" d="M176.73,261.63c2.38-2.21,5.09-3.65,8.35-4.01c2.08-0.23,4.1,0.26,6.16,0.08c2.53-0.22,4.6-1.42,5.64-3.78
			c1.36-3.09-0.4-7.48,1.96-9.89c2.5-2.56,8.46-0.39,11.94-1.62c2.98-1.05,4.72-3.43,6.26-6.07c1.11-1.91,2.04-4.13,3.98-5.38
			c2.2-1.42,5.16-1.42,7.64-1.8c7.77-1.19,14.08-5.26,17.22-12.66c1.24-2.93-3.06-5.48-4.32-2.52c-1.94,4.58-5.38,8.18-10.24,9.61
			c-3.78,1.11-7.91,0.73-11.55,2.42c-3.31,1.54-4.97,4.16-6.74,7.23c-1.31,2.26-2.41,4.11-5.13,4.7c-2.04,0.44-4.23-0.12-6.29-0.07
			c-6.8,0.18-8.74,4.44-8.98,10.58c-0.11,2.8-0.35,4.07-3.4,4.22c-1.73,0.08-3.41-0.24-5.17,0.01c-4.22,0.6-7.79,2.55-10.88,5.41
			C170.83,260.29,174.37,263.82,176.73,261.63L176.73,261.63z"/>
	</g>
</g>
<g>
	<g>
		<path class="st6" d="M192.72,291.26c2.38-2.21,5.09-3.65,8.35-4.01c2.08-0.23,4.1,0.26,6.16,0.08c2.53-0.22,4.6-1.42,5.64-3.78
			c1.36-3.09-0.4-7.48,1.96-9.89c2.5-2.56,8.46-0.39,11.94-1.62c2.98-1.05,4.72-3.43,6.26-6.07c1.11-1.91,2.04-4.13,3.98-5.38
			c2.2-1.42,5.16-1.42,7.64-1.8c7.77-1.19,14.08-5.26,17.22-12.66c1.24-2.93-3.06-5.48-4.32-2.52c-1.94,4.58-5.38,8.18-10.24,9.61
			c-3.78,1.11-7.91,0.73-11.55,2.42c-3.31,1.54-4.97,4.16-6.74,7.23c-1.31,2.26-2.41,4.11-5.13,4.7c-2.04,0.44-4.23-0.12-6.29-0.07
			c-6.8,0.18-8.74,4.44-8.98,10.58c-0.11,2.8-0.35,4.07-3.4,4.22c-1.73,0.08-3.41-0.24-5.17,0.01c-4.22,0.6-7.79,2.55-10.88,5.41
			C186.82,289.91,190.36,293.44,192.72,291.26L192.72,291.26z"/>
	</g>
</g>
<text transform="matrix(0.8064 -0.5914 0.5914 0.8064 230.3673 341.5511)" class="st12 st14 st15">$</text>
<rect x="367.48" y="258.99" transform="matrix(0.7071 -0.7071 0.7071 0.7071 -102.2651 356.9847)" class="st16" width="24.62" height="85.89"/>
<circle class="st16" cx="291.27" cy="221.7" r="77.67"/>
<circle class="st17" cx="291.4" cy="220.13" r="59.79"/>
<g>
	<g>
		<path class="st6" d="M280.64,187.14c-8.02,7.86-16.05,15.72-24.07,23.58c-2.3,2.26,1.23,5.79,3.54,3.54
			c8.02-7.86,16.05-15.72,24.07-23.58C286.48,188.42,282.94,184.89,280.64,187.14L280.64,187.14z"/>
	</g>
</g>
<g>
	<g>
		<path class="st6" d="M314.54,191.1c-17.51,17.15-35.01,34.3-52.52,51.44c-2.3,2.26,1.23,5.79,3.54,3.54
			c17.51-17.15,35.01-34.3,52.52-51.44C320.37,192.38,316.84,188.85,314.54,191.1L314.54,191.1z"/>
	</g>
</g>
<g>
	<g>
		<path class="st6" d="M318.54,222.91c-7.29,7.14-14.59,14.29-21.88,21.43c-2.3,2.26,1.23,5.79,3.54,3.54
			c7.29-7.14,14.59-14.29,21.88-21.43C324.38,224.19,320.84,220.66,318.54,222.91L318.54,222.91z"/>
	</g>
</g>
</svg>
