<?xml version="1.0" encoding="utf-8"?>
<!-- Generator: Adobe Illustrator 23.0.1, SVG Export Plug-In . SVG Version: 6.00 Build 0)  -->
<svg version="1.1" id="Layer_1" xmlns="http://www.w3.org/2000/svg" xmlns:xlink="http://www.w3.org/1999/xlink" x="0px" y="0px"
	 viewBox="0 0 500 500" style="enable-background:new 0 0 500 500;" xml:space="preserve">
<style type="text/css">
	.st0{clip-path:url(#SVGID_2_);}
	.st1{clip-path:url(#SVGID_4_);}
	.st2{fill:#EE3145;}
	.st3{fill:#FFFFFF;}
	.st4{fill:none;stroke:#1D184B;stroke-width:12;stroke-miterlimit:10;}
	.st5{fill:#FFFFFF;stroke:#1D184B;stroke-width:12;stroke-miterlimit:10;}
	.st6{fill:#1D184B;}
	.st7{fill:none;stroke:#1D184B;stroke-miterlimit:10;}
	.st8{fill:#ED3045;}
	.st9{fill:none;stroke:#1D184B;stroke-width:3;stroke-miterlimit:10;}
	.st10{fill:none;stroke:#1D184B;stroke-width:4;stroke-miterlimit:10;}
	.st11{fill:none;stroke:#1D184B;stroke-width:2;stroke-miterlimit:10;}
	.st12{fill:none;stroke:#1D184B;stroke-width:9;stroke-miterlimit:10;}
	.st13{fill:none;stroke:#1D184B;stroke-width:5;stroke-miterlimit:10;}
	.st14{fill:#FFFFFF;stroke:#1D184B;stroke-width:5;stroke-miterlimit:10;}
	.st15{fill:none;stroke:#1D184B;stroke-width:7;stroke-miterlimit:10;}
	.st16{fill:#FFFFFF;stroke:#1D184B;stroke-width:2;stroke-miterlimit:10;}
	.st17{fill:none;stroke:#1D184B;stroke-width:13;stroke-miterlimit:10;}
</style>
<g>
	<circle class="st2" cx="259.81" cy="255.56" r="218.12"/>
	<circle class="st3" cx="259.81" cy="255.56" r="181.25"/>
</g>
<circle class="st4" cx="250" cy="248.79" r="181.25"/>
<circle class="st4" cx="250" cy="248.79" r="218.12"/>
<path class="st6" d="M425.84,292.88c0,0-22.23,13.16-99.41,24.74s-247.86-9.87-247.86-9.87l21.75,35.71
	c0,0,271.99,10.13,310.12-10.28L425.84,292.88z"/>
<path class="st6" d="M425.84,204.71c0,0-262.84-3.37-340.16-32.46l-11.51,32.46c0,0,302.86,52.7,357.09,19.31L425.84,204.71z"/>
<polygon class="st6" points="380.67,262.91 383.21,314.11 387.91,314.11 386.22,262.91 "/>
<circle class="st2" cx="384.58" cy="255.56" r="11.94"/>
<circle class="st7" cx="383.21" cy="254.24" r="11.94"/>
<polygon class="st6" points="147.12,150.24 149.67,201.45 154.37,201.45 152.68,150.24 "/>
<circle class="st2" cx="150.74" cy="143.23" r="11.94"/>
<circle class="st7" cx="149.67" cy="141.57" r="11.94"/>
<g>
	<path class="st8" d="M265.19,139.55l-63.52-6.66c-14.08-1.48-16.45,17.41-16.83,22.43c-0.05,0.68,0.43,1.28,1.11,1.37l7.09,0.99
		c0.69,0.1,1.18,0.72,1.1,1.41l-1.05,9.97c-0.07,0.71-0.71,1.22-1.42,1.15l-6.97-0.73c-0.71-0.07-1.34,0.44-1.42,1.15l-1.29,12.31
		c-0.07,0.71,0.44,1.34,1.15,1.42l1.61,0.17c0.38-1.42,1.75-2.4,3.26-2.24c1.51,0.16,2.64,1.39,2.72,2.86l53.91,5.65
		c0.34-1.48,1.74-2.5,3.28-2.34c1.55,0.16,2.7,1.46,2.73,2.97l17.88,1.88c0.71,0.07,1.34-0.44,1.42-1.15l4.34-41.37
		C274.88,145.17,270.81,140.14,265.19,139.55z"/>
	<g>
		<g>
			<path class="st6" d="M203.02,173l-6.83-0.72c-1.19-0.12-2.05-1.19-1.93-2.38l1.12-10.67c0.12-1.19,1.19-2.05,2.38-1.93l6.83,0.72
				c1.19,0.12,2.05,1.19,1.93,2.38l-1.12,10.67C205.28,172.26,204.21,173.12,203.02,173z M197.57,159.2
				c-0.14-0.01-0.26,0.09-0.28,0.22l-1.12,10.67c-0.01,0.14,0.09,0.26,0.22,0.28l6.83,0.72c0.14,0.01,0.26-0.09,0.28-0.22
				l1.12-10.67c0.01-0.14-0.09-0.26-0.22-0.28L197.57,159.2z"/>
		</g>
	</g>
	<g>
		<g>
			<path class="st6" d="M215.83,174.34l-6.83-0.72c-1.19-0.12-2.05-1.19-1.93-2.38l1.12-10.67c0.12-1.19,1.19-2.05,2.38-1.93
				l6.83,0.72c1.19,0.12,2.05,1.19,1.93,2.38l-1.12,10.67C218.09,173.6,217.02,174.46,215.83,174.34z M210.38,160.55
				c-0.14-0.01-0.26,0.09-0.28,0.22l-1.12,10.67c-0.01,0.14,0.09,0.26,0.22,0.28l6.83,0.72c0.14,0.01,0.26-0.09,0.28-0.22
				l1.12-10.67c0.01-0.14-0.09-0.26-0.22-0.28L210.38,160.55z"/>
		</g>
	</g>
	<g>
		<g>
			<path class="st6" d="M228.97,175.72l-6.83-0.72c-1.19-0.12-2.05-1.19-1.93-2.38l1.12-10.67c0.12-1.19,1.19-2.05,2.38-1.93
				l6.83,0.72c1.19,0.12,2.05,1.19,1.93,2.38l-1.12,10.67C231.22,174.98,230.15,175.84,228.97,175.72z M223.51,161.92
				c-0.14-0.01-0.26,0.09-0.28,0.22l-1.12,10.67c-0.01,0.14,0.09,0.26,0.22,0.28l6.83,0.72c0.14,0.01,0.26-0.09,0.28-0.22
				l1.12-10.67c0.01-0.14-0.09-0.26-0.22-0.28L223.51,161.92z"/>
		</g>
	</g>
	<g>
		<g>
			<path class="st6" d="M241.78,177.06l-6.83-0.72c-1.19-0.12-2.05-1.19-1.93-2.38l1.12-10.67c0.12-1.19,1.19-2.05,2.38-1.93
				l6.83,0.72c1.19,0.12,2.05,1.19,1.93,2.38l-1.12,10.67C244.03,176.32,242.96,177.19,241.78,177.06z M236.32,163.27
				c-0.14-0.01-0.26,0.09-0.28,0.22l-1.12,10.67c-0.01,0.14,0.09,0.26,0.22,0.28l6.83,0.72c0.14,0.01,0.26-0.09,0.28-0.22
				l1.12-10.67c0.01-0.14-0.09-0.26-0.22-0.28L236.32,163.27z"/>
		</g>
	</g>
	<g>
		<g>
			<path class="st6" d="M199.45,148.45l-9.4-0.99c-1.09-0.11-1.88-1.09-1.77-2.18l0.49-4.67c0.16-1.53,1.54-2.65,3.07-2.49l8.59,0.9
				c1.09,0.11,1.88,1.09,1.77,2.18l-0.57,5.48C201.52,147.77,200.54,148.56,199.45,148.45z M191.67,139.77
				c-0.62-0.07-1.18,0.39-1.25,1.01l-0.49,4.67c-0.02,0.18,0.11,0.34,0.29,0.36l9.4,0.99c0.18,0.02,0.34-0.11,0.36-0.29l0.57-5.48
				c0.02-0.18-0.11-0.34-0.29-0.36L191.67,139.77z"/>
		</g>
	</g>
	<g>
		<g>
			<path class="st6" d="M215.63,150.15l-9.3-0.98c-1.12-0.12-1.93-1.12-1.81-2.24l0.56-5.37c0.12-1.12,1.12-1.93,2.24-1.81l9.3,0.98
				c1.12,0.12,1.93,1.12,1.81,2.24l-0.56,5.37C217.76,149.45,216.75,150.27,215.63,150.15z M207.15,141.39
				c-0.21-0.02-0.39,0.13-0.42,0.34l-0.56,5.37c-0.02,0.21,0.13,0.39,0.34,0.42l9.3,0.98c0.21,0.02,0.39-0.13,0.42-0.34l0.56-5.37
				c0.02-0.21-0.13-0.39-0.34-0.42L207.15,141.39z"/>
		</g>
	</g>
	<g>
		<g>
			<path class="st6" d="M232.28,151.89l-9.3-0.98c-1.12-0.12-1.93-1.12-1.81-2.24l0.56-5.37c0.12-1.12,1.12-1.93,2.24-1.81l9.3,0.98
				c1.12,0.12,1.93,1.12,1.81,2.24l-0.56,5.37C234.4,151.2,233.39,152.01,232.28,151.89z M223.8,143.14
				c-0.21-0.02-0.39,0.13-0.42,0.34l-0.56,5.37c-0.02,0.21,0.13,0.39,0.34,0.42l9.3,0.98c0.21,0.02,0.39-0.13,0.42-0.34l0.56-5.37
				c0.02-0.21-0.13-0.39-0.34-0.42L223.8,143.14z"/>
		</g>
	</g>
	<path class="st6" d="M184.67,184.99c0.03-0.29,0.1-0.57,0.21-0.83l-8.26-0.87c-0.6-0.06-1.14,0.37-1.2,0.97s0.37,1.14,0.97,1.2
		l8.45,0.89C184.69,185.94,184.62,185.47,184.67,184.99z"/>
	<g>
		<g>
			<path class="st6" d="M248.51,153.6l-9.3-0.98c-1.12-0.12-1.93-1.12-1.81-2.24l0.56-5.37c0.12-1.12,1.12-1.93,2.24-1.81l9.3,0.98
				c1.12,0.12,1.93,1.12,1.81,2.24l-0.56,5.37C250.63,152.9,249.63,153.71,248.51,153.6z M240.03,144.84
				c-0.21-0.02-0.39,0.13-0.42,0.34l-0.56,5.37c-0.02,0.21,0.13,0.39,0.34,0.42l9.3,0.98c0.21,0.02,0.39-0.13,0.42-0.34l0.56-5.37
				c0.02-0.21-0.13-0.39-0.34-0.42L240.03,144.84z"/>
		</g>
	</g>
	<g>
		<g>
			<path class="st6" d="M264.63,155.29l-9.4-0.99c-1.09-0.11-1.88-1.09-1.77-2.18l0.57-5.48c0.11-1.09,1.09-1.88,2.18-1.77l8.59,0.9
				c1.53,0.16,2.65,1.54,2.49,3.07l-0.49,4.67C266.7,154.61,265.72,155.4,264.63,155.29z M256.05,146.52
				c-0.18-0.02-0.34,0.11-0.36,0.29l-0.57,5.48c-0.02,0.18,0.11,0.34,0.29,0.36l9.4,0.99c0.18,0.02,0.34-0.11,0.36-0.29l0.49-4.67
				c0.07-0.62-0.39-1.18-1.01-1.25L256.05,146.52z"/>
		</g>
	</g>
	<g>
		<g>
			<path class="st6" d="M240.41,186.04l-43.26-4.54c-0.46-0.05-0.79-0.46-0.74-0.91c0.05-0.46,0.46-0.79,0.91-0.74l43.26,4.54
				c0.46,0.05,0.79,0.46,0.74,0.91S240.86,186.09,240.41,186.04z"/>
		</g>
	</g>
	<g>
		<g>
			<path class="st6" d="M265.32,159.87l-79.13-8.3c-0.46-0.05-0.79-0.46-0.74-0.91s0.46-0.79,0.91-0.74l79.13,8.3
				c0.46,0.05,0.79,0.46,0.74,0.91C266.18,159.59,265.77,159.92,265.32,159.87z"/>
		</g>
	</g>
	<g>
		<g>
			<path class="st6" d="M259.08,193.65c-0.53-0.06-0.91-0.53-0.85-1.05l2.87-27.36c0.06-0.53,0.53-0.91,1.05-0.85
				c0.53,0.06,0.91,0.53,0.85,1.05l-2.87,27.36C260.08,193.33,259.61,193.71,259.08,193.65z"/>
		</g>
	</g>
	<path class="st6" d="M188.42,178.53c-3.73-0.39-7.07,2.31-7.46,6.04c-0.39,3.73,2.31,7.07,6.04,7.46c3.73,0.39,7.07-2.31,7.46-6.04
		C194.85,182.26,192.14,178.92,188.42,178.53z M187.39,188.34c-1.67-0.18-2.89-1.68-2.71-3.35c0.18-1.67,1.68-2.89,3.35-2.71
		c1.67,0.18,2.89,1.68,2.71,3.35C190.56,187.3,189.06,188.52,187.39,188.34z"/>
	<path class="st6" d="M248.33,184.74c-3.73-0.39-7.07,2.31-7.46,6.04c-0.39,3.73,2.31,7.07,6.04,7.46c3.73,0.39,7.07-2.31,7.46-6.04
		C254.76,188.47,252.05,185.13,248.33,184.74z M247.3,194.52c-1.67-0.18-2.89-1.68-2.71-3.35c0.18-1.67,1.68-2.89,3.35-2.71
		c1.67,0.18,2.89,1.68,2.71,3.35C250.47,193.48,248.97,194.7,247.3,194.52z"/>
	<g>
		<path class="st6" d="M244.64,192.14c-0.07-0.31-0.09-0.63-0.05-0.97c0.03-0.33,0.12-0.65,0.25-0.93l-54.19-5.68
			c0.09,0.34,0.12,0.71,0.08,1.08c-0.03,0.29-0.1,0.57-0.21,0.83L244.64,192.14z"/>
		<path class="st6" d="M261.74,138.61l-63.52-6.66c-3.77-0.4-7.05,0.55-9.77,2.82c-6.32,5.27-7.77,16.08-8.11,20.48
			c-0.09,1.18,0.76,2.23,1.93,2.39l7.09,0.99c0.18,0.02,0.3,0.19,0.28,0.36l-1.05,9.97c-0.02,0.18-0.18,0.32-0.37,0.3l-6.97-0.73
			c-1.23-0.13-2.34,0.77-2.47,2l-1.29,12.31c-0.13,1.23,0.77,2.34,2,2.47l5.2,0.55c-0.05-0.28-0.06-0.56-0.03-0.86
			c0.04-0.37,0.15-0.72,0.3-1.04l-5.27-0.55c-0.18-0.02-0.32-0.18-0.3-0.37l1.29-12.31c0.02-0.18,0.18-0.32,0.37-0.3l6.97,0.73
			c1.23,0.13,2.34-0.77,2.47-2l1.05-9.97c0.13-1.21-0.72-2.29-1.92-2.46l-7.09-0.99c-0.18-0.02-0.3-0.18-0.29-0.35
			c0.25-3.25,1.51-14.22,7.43-19.16c2.31-1.92,5.11-2.73,8.35-2.39l63.52,6.66c5.08,0.53,8.79,5.1,8.25,10.19l-4.34,41.37
			c-0.02,0.18-0.18,0.32-0.37,0.3l-14.5-1.52c0.07,0.31,0.09,0.63,0.05,0.97s-0.12,0.65-0.25,0.93l14.5,1.52
			c1.23,0.13,2.34-0.77,2.47-2l4.34-41.37C272.34,144.76,267.88,139.25,261.74,138.61z"/>
	</g>
	<g>
		<path class="st6" d="M244.8,192.65c-0.19-0.45-0.27-0.96-0.21-1.48c0.03-0.25,0.09-0.49,0.17-0.72l-54.05-5.67
			c0.05,0.27,0.06,0.56,0.03,0.85c-0.05,0.48-0.21,0.92-0.45,1.3L244.8,192.65z"/>
		<path class="st6" d="M269,192.99l-18.37-1.93c0.03,0.24,0.04,0.49,0.02,0.74c-0.05,0.52-0.24,1-0.51,1.4l18.64,1.96
			c0.6,0.06,1.14-0.37,1.2-0.97C270.03,193.59,269.6,193.06,269,192.99z"/>
	</g>
	<path class="st6" d="M257.52,163.52c-4.35-0.46-8.3,3.05-8.8,7.82l-1.8,17.19c0.33-0.08,0.67-0.1,1.02-0.07
		c0.35,0.04,0.68,0.13,0.98,0.28l1.8-17.19c0.38-3.66,3.34-6.37,6.59-6.03l11.76,1.23l0.21-2L257.52,163.52z"/>
</g>
<g>
	<path class="st8" d="M100.18,258.91l55.81,5.92c12.37,1.31,10.94,17.98,10.35,22.36c-0.08,0.59-0.61,1.02-1.2,0.97l-6.27-0.45
		c-0.61-0.04-1.14,0.4-1.21,1.01l-0.93,8.76c-0.07,0.62,0.38,1.18,1.01,1.25l6.12,0.65c0.62,0.07,1.07,0.62,1.01,1.25l-1.15,10.81
		c-0.07,0.62-0.62,1.07-1.25,1.01l-1.42-0.15c-0.07-1.29-1.06-2.38-2.39-2.52c-1.33-0.14-2.53,0.71-2.86,1.96l-47.36-5.03
		c-0.02-1.33-1.03-2.47-2.39-2.61c-1.36-0.14-2.59,0.76-2.89,2.05l-15.71-1.67c-0.62-0.07-1.07-0.62-1.01-1.25l3.86-36.35
		C90.82,261.97,95.24,258.39,100.18,258.91z"/>
	<g>
		<g>
			<path class="st6" d="M145.78,296.96l1-9.38c0.11-1.04,1.05-1.8,2.09-1.69l6,0.64c1.04,0.11,1.8,1.05,1.69,2.09l-1,9.38
				c-0.11,1.04-1.05,1.8-2.09,1.69l-6-0.64C146.43,298.95,145.67,298.01,145.78,296.96z M148.69,287.57
				c-0.12-0.01-0.23,0.08-0.24,0.2l-1,9.38c-0.01,0.12,0.08,0.23,0.2,0.24l6,0.64c0.12,0.01,0.23-0.08,0.24-0.2l1-9.38
				c0.01-0.12-0.08-0.23-0.2-0.24L148.69,287.57z"/>
		</g>
	</g>
	<g>
		<g>
			<path class="st6" d="M134.53,295.77l1-9.38c0.11-1.04,1.05-1.8,2.09-1.69l6,0.64c1.04,0.11,1.8,1.05,1.69,2.09l-1,9.38
				c-0.11,1.04-1.05,1.8-2.09,1.69l-6-0.64C135.17,297.75,134.42,296.81,134.53,295.77z M137.44,286.37
				c-0.12-0.01-0.23,0.08-0.24,0.2l-1,9.38c-0.01,0.12,0.08,0.23,0.2,0.24l6,0.64c0.12,0.01,0.23-0.08,0.24-0.2l1-9.38
				c0.01-0.12-0.08-0.23-0.2-0.24L137.44,286.37z"/>
		</g>
	</g>
	<g>
		<g>
			<path class="st6" d="M122.99,294.55l1-9.38c0.11-1.04,1.05-1.8,2.09-1.69l6,0.64c1.04,0.11,1.8,1.05,1.69,2.09l-1,9.38
				c-0.11,1.04-1.05,1.8-2.09,1.69l-6-0.64C123.64,296.53,122.88,295.59,122.99,294.55z M125.9,285.15
				c-0.12-0.01-0.23,0.08-0.24,0.2l-1,9.38c-0.01,0.12,0.08,0.23,0.2,0.24l6,0.64c0.12,0.01,0.23-0.08,0.24-0.2l1-9.38
				c0.01-0.12-0.08-0.23-0.2-0.24L125.9,285.15z"/>
		</g>
	</g>
	<g>
		<g>
			<path class="st6" d="M111.73,293.35l1-9.38c0.11-1.04,1.05-1.8,2.09-1.69l6,0.64c1.04,0.11,1.8,1.05,1.69,2.09l-1,9.38
				c-0.11,1.04-1.05,1.8-2.09,1.69l-6-0.64C112.38,295.33,111.62,294.39,111.73,293.35z M114.64,283.95
				c-0.12-0.01-0.23,0.08-0.24,0.2l-1,9.38c-0.01,0.12,0.08,0.23,0.2,0.24l6,0.64c0.12,0.01,0.23-0.08,0.24-0.2l1-9.38
				c0.01-0.12-0.08-0.23-0.2-0.24L114.64,283.95z"/>
		</g>
	</g>
	<g>
		<g>
			<path class="st6" d="M153.49,276.7l0.51-4.81c0.1-0.96,0.96-1.65,1.92-1.55l7.55,0.8c1.35,0.14,2.33,1.35,2.18,2.7l-0.44,4.11
				c-0.1,0.96-0.96,1.65-1.92,1.55l-8.26-0.88C154.09,278.52,153.39,277.65,153.49,276.7z M155.77,271.78
				c-0.16-0.02-0.3,0.1-0.32,0.26l-0.51,4.81c-0.02,0.16,0.1,0.3,0.26,0.32l8.26,0.88c0.16,0.02,0.3-0.1,0.32-0.26l0.44-4.11
				c0.06-0.55-0.34-1.04-0.89-1.1L155.77,271.78z"/>
		</g>
	</g>
	<g>
		<g>
			<path class="st6" d="M139.23,275.14l0.5-4.72c0.1-0.98,0.99-1.7,1.97-1.59l8.17,0.87c0.98,0.1,1.7,0.99,1.59,1.97l-0.5,4.72
				c-0.1,0.98-0.99,1.7-1.97,1.59l-8.17-0.87C139.84,277,139.13,276.12,139.23,275.14z M141.55,270.27
				c-0.18-0.02-0.35,0.11-0.37,0.3l-0.5,4.72c-0.02,0.18,0.11,0.35,0.3,0.37l8.17,0.87c0.18,0.02,0.35-0.11,0.37-0.3l0.5-4.72
				c0.02-0.18-0.11-0.35-0.3-0.37L141.55,270.27z"/>
		</g>
	</g>
	<g>
		<g>
			<path class="st6" d="M124.61,273.59l0.5-4.72c0.1-0.98,0.99-1.7,1.97-1.59l8.17,0.87c0.98,0.1,1.7,0.99,1.59,1.97l-0.5,4.72
				c-0.1,0.98-0.99,1.7-1.97,1.59l-8.17-0.87C125.22,275.45,124.51,274.57,124.61,273.59z M126.93,268.72
				c-0.18-0.02-0.35,0.11-0.37,0.3l-0.5,4.72c-0.02,0.18,0.11,0.35,0.3,0.37l8.17,0.87c0.18,0.02,0.35-0.11,0.37-0.3l0.5-4.72
				c0.02-0.18-0.11-0.35-0.3-0.37L126.93,268.72z"/>
		</g>
	</g>
	<path class="st6" d="M161.04,312.73c0.03-0.26,0.02-0.51-0.03-0.75l7.26,0.77c0.53,0.06,0.91,0.53,0.85,1.05s-0.53,0.91-1.05,0.85
		l-7.43-0.79C160.86,313.54,161,313.15,161.04,312.73z"/>
	<g>
		<g>
			<path class="st6" d="M110.35,272.07l0.5-4.72c0.1-0.98,0.99-1.7,1.97-1.59l8.17,0.87c0.98,0.1,1.7,0.99,1.59,1.97l-0.5,4.72
				c-0.1,0.98-0.99,1.7-1.97,1.59l-8.17-0.87C110.96,273.94,110.24,273.05,110.35,272.07z M112.66,267.21
				c-0.18-0.02-0.35,0.11-0.37,0.3l-0.5,4.72c-0.02,0.18,0.11,0.35,0.3,0.37l8.17,0.87c0.18,0.02,0.35-0.11,0.37-0.3l0.5-4.72
				c0.02-0.18-0.11-0.35-0.3-0.37L112.66,267.21z"/>
		</g>
	</g>
	<g>
		<g>
			<path class="st6" d="M96.22,270.62l0.44-4.11c0.14-1.35,1.35-2.33,2.7-2.18l7.55,0.8c0.96,0.1,1.65,0.96,1.55,1.92l-0.51,4.81
				c-0.1,0.96-0.96,1.65-1.92,1.55l-8.26-0.88C96.81,272.44,96.12,271.58,96.22,270.62z M99.2,265.78c-0.55-0.06-1.04,0.34-1.1,0.89
				l-0.44,4.11c-0.02,0.16,0.1,0.3,0.26,0.32l8.26,0.88c0.16,0.02,0.3-0.1,0.32-0.26l0.51-4.81c0.02-0.16-0.1-0.3-0.26-0.32
				L99.2,265.78z"/>
		</g>
	</g>
	<g>
		<g>
			<path class="st6" d="M112.95,303.41l38.01,4.03c0.4,0.04,0.76-0.25,0.8-0.65c0.04-0.4-0.25-0.76-0.65-0.8l-38.01-4.03
				c-0.4-0.04-0.76,0.25-0.8,0.65C112.26,303.01,112.55,303.37,112.95,303.41z"/>
		</g>
	</g>
	<g>
		<g>
			<path class="st6" d="M96.34,276.36l69.53,7.38c0.4,0.04,0.76-0.25,0.8-0.65c0.04-0.4-0.25-0.76-0.65-0.8L96.5,274.9
				c-0.4-0.04-0.76,0.25-0.8,0.65C95.65,275.95,95.94,276.31,96.34,276.36z"/>
		</g>
	</g>
	<g>
		<g>
			<path class="st6" d="M95.51,306.53c0.46,0.05,0.88-0.29,0.92-0.75l2.55-24.04c0.05-0.46-0.29-0.88-0.75-0.92
				s-0.88,0.29-0.92,0.75l-2.55,24.04C94.71,306.07,95.05,306.48,95.51,306.53z"/>
		</g>
	</g>
	<path class="st6" d="M152.45,311.79c-0.35,3.28,2.03,6.21,5.3,6.56c3.28,0.35,6.21-2.03,6.56-5.3c0.35-3.28-2.03-6.21-5.3-6.56
		C155.73,306.14,152.8,308.52,152.45,311.79z M155.71,312.17c0.16-1.47,1.48-2.54,2.95-2.38c1.47,0.16,2.54,1.48,2.38,2.95
		c-0.16,1.47-1.48,2.54-2.95,2.38C156.62,314.96,155.56,313.64,155.71,312.17z"/>
	<path class="st6" d="M99.82,306.14c-0.35,3.28,2.03,6.21,5.3,6.56c3.28,0.35,6.21-2.03,6.56-5.3c0.35-3.28-2.03-6.21-5.3-6.56
		C103.11,300.49,100.17,302.87,99.82,306.14z M103.09,306.49c0.16-1.47,1.48-2.54,2.95-2.38c1.47,0.16,2.54,1.48,2.38,2.95
		s-1.48,2.54-2.95,2.38C104,309.28,102.94,307.96,103.09,306.49z"/>
	<g>
		<path class="st6" d="M108.2,307.88c0.11-0.25,0.19-0.53,0.22-0.82c0.03-0.29,0.01-0.58-0.05-0.85l47.61,5.05
			c-0.14,0.28-0.23,0.58-0.27,0.91c-0.03,0.26-0.02,0.51,0.03,0.75L108.2,307.88z"/>
		<path class="st6" d="M103.31,258.73l55.81,5.92c3.31,0.35,5.96,1.77,7.88,4.22c4.46,5.69,3.73,15.25,3.21,19.09
			c-0.14,1.03-1.06,1.77-2.1,1.7l-6.27-0.45c-0.16-0.01-0.29,0.1-0.31,0.26l-0.93,8.76c-0.02,0.16,0.1,0.3,0.26,0.32l6.12,0.65
			c1.08,0.11,1.87,1.09,1.75,2.17l-1.15,10.81c-0.11,1.08-1.09,1.87-2.17,1.75l-4.57-0.48c0.09-0.23,0.16-0.47,0.19-0.73
			c0.03-0.33,0.01-0.65-0.07-0.95l4.63,0.49c0.16,0.02,0.3-0.1,0.32-0.26l1.15-10.81c0.02-0.16-0.1-0.3-0.26-0.32l-6.12-0.65
			c-1.08-0.11-1.87-1.09-1.75-2.17l0.93-8.76c0.11-1.06,1.04-1.84,2.1-1.76l6.27,0.45c0.16,0.01,0.29-0.1,0.31-0.25
			c0.38-2.84,1.31-12.5-2.87-17.83c-1.63-2.08-3.89-3.28-6.74-3.58l-55.81-5.92c-4.47-0.47-8.49,2.77-8.96,7.24l-3.86,36.35
			c-0.02,0.16,0.1,0.3,0.26,0.32l12.74,1.35c-0.11,0.25-0.19,0.53-0.22,0.82c-0.03,0.29-0.01,0.58,0.05,0.85l-12.74-1.35
			c-1.08-0.11-1.87-1.09-1.75-2.17l3.86-36.35C93.08,262.08,97.93,258.16,103.31,258.73z"/>
	</g>
	<g>
		<path class="st6" d="M107.97,308.29c0.24-0.35,0.4-0.77,0.45-1.23c0.02-0.22,0.02-0.44-0.01-0.65l47.49,5.04
			c-0.09,0.23-0.16,0.47-0.18,0.73c-0.04,0.42,0.01,0.83,0.15,1.2L107.97,308.29z"/>
		<path class="st6" d="M87.1,304.14l16.14,1.71c-0.07,0.2-0.13,0.41-0.15,0.63c-0.05,0.46,0.02,0.9,0.18,1.3l-16.38-1.74
			c-0.53-0.06-0.91-0.53-0.85-1.05C86.1,304.47,86.58,304.09,87.1,304.14z"/>
	</g>
	<path class="st6" d="M102.38,280.92c3.82,0.41,6.57,4.15,6.13,8.34l-1.6,15.1c-0.27-0.13-0.55-0.21-0.86-0.25s-0.61-0.01-0.9,0.06
		l1.6-15.1c0.34-3.22-1.7-6.09-4.56-6.39l-10.34-1.1l0.19-1.76L102.38,280.92z"/>
</g>
<g>
	<path class="st8" d="M191.16,267.41l56.09,2.07c12.43,0.46,12.15,17.19,11.86,21.6c-0.04,0.6-0.53,1.06-1.13,1.05l-6.29-0.01
		c-0.61,0-1.11,0.48-1.13,1.09l-0.33,8.8c-0.02,0.63,0.46,1.15,1.09,1.17l6.15,0.23c0.63,0.02,1.11,0.55,1.09,1.17l-0.4,10.87
		c-0.02,0.63-0.55,1.11-1.17,1.09l-1.42-0.05c-0.16-1.28-1.22-2.3-2.56-2.35c-1.33-0.05-2.47,0.89-2.72,2.15l-47.6-1.76
		c-0.11-1.33-1.2-2.39-2.57-2.44c-1.37-0.05-2.53,0.93-2.74,2.25l-15.79-0.58c-0.63-0.02-1.11-0.55-1.09-1.17l1.35-36.53
		C182.03,271.09,186.2,267.22,191.16,267.41z"/>
	<g>
		<g>
			<path class="st6" d="M239.27,302.23l0.35-9.42c0.04-1.05,0.92-1.87,1.97-1.83l6.03,0.22c1.05,0.04,1.87,0.92,1.83,1.97
				l-0.35,9.42c-0.04,1.05-0.92,1.87-1.97,1.83l-6.03-0.22C240.05,304.16,239.23,303.28,239.27,302.23z M241.53,292.66
				c-0.12,0-0.23,0.09-0.23,0.21l-0.35,9.42c0,0.12,0.09,0.23,0.21,0.23l6.03,0.22c0.12,0,0.23-0.09,0.23-0.21l0.35-9.42
				c0-0.12-0.09-0.23-0.21-0.23L241.53,292.66z"/>
		</g>
	</g>
	<g>
		<g>
			<path class="st6" d="M227.96,301.81l0.35-9.42c0.04-1.05,0.92-1.87,1.97-1.83l6.03,0.22c1.05,0.04,1.87,0.92,1.83,1.97
				l-0.35,9.42c-0.04,1.05-0.92,1.87-1.97,1.83l-6.03-0.22C228.74,303.75,227.92,302.86,227.96,301.81z M230.22,292.24
				c-0.12,0-0.23,0.09-0.23,0.21l-0.35,9.42c0,0.12,0.09,0.23,0.21,0.23l6.03,0.22c0.12,0,0.23-0.09,0.23-0.21l0.35-9.42
				c0-0.12-0.09-0.23-0.21-0.23L230.22,292.24z"/>
		</g>
	</g>
	<g>
		<g>
			<path class="st6" d="M216.36,301.39l0.35-9.42c0.04-1.05,0.92-1.87,1.97-1.83l6.03,0.22c1.05,0.04,1.87,0.92,1.83,1.97
				l-0.35,9.42c-0.04,1.05-0.92,1.87-1.97,1.83l-6.03-0.22C217.15,303.32,216.32,302.43,216.36,301.39z M218.62,291.81
				c-0.12,0-0.23,0.09-0.23,0.21l-0.35,9.42c0,0.12,0.09,0.23,0.21,0.23l6.03,0.22c0.12,0,0.23-0.09,0.23-0.21l0.35-9.42
				c0-0.12-0.09-0.23-0.21-0.23L218.62,291.81z"/>
		</g>
	</g>
	<g>
		<g>
			<path class="st6" d="M205.05,300.97l0.35-9.42c0.04-1.05,0.92-1.87,1.97-1.83l6.03,0.22c1.05,0.04,1.87,0.92,1.83,1.97
				l-0.35,9.42c-0.04,1.05-0.92,1.87-1.97,1.83l-6.03-0.22C205.83,302.9,205.01,302.02,205.05,300.97z M207.31,291.39
				c-0.12,0-0.23,0.09-0.23,0.21l-0.35,9.42c0,0.12,0.09,0.23,0.21,0.23l6.03,0.22c0.12,0,0.23-0.09,0.23-0.21l0.35-9.42
				c0-0.12-0.09-0.23-0.21-0.23L207.31,291.39z"/>
		</g>
	</g>
	<g>
		<g>
			<path class="st6" d="M245.57,281.48l0.18-4.83c0.04-0.96,0.85-1.72,1.81-1.68l7.59,0.28c1.35,0.05,2.41,1.19,2.36,2.54
				l-0.15,4.13c-0.04,0.96-0.85,1.72-1.81,1.68l-8.3-0.31C246.29,283.26,245.53,282.44,245.57,281.48z M247.5,276.42
				c-0.16-0.01-0.29,0.12-0.3,0.28l-0.18,4.83c-0.01,0.16,0.12,0.29,0.28,0.3l8.3,0.31c0.16,0.01,0.29-0.12,0.3-0.28l0.15-4.13
				c0.02-0.55-0.41-1.01-0.96-1.03L247.5,276.42z"/>
		</g>
	</g>
	<g>
		<g>
			<path class="st6" d="M231.24,280.91l0.18-4.75c0.04-0.99,0.87-1.76,1.86-1.72l8.21,0.3c0.99,0.04,1.76,0.87,1.72,1.86l-0.18,4.75
				c-0.04,0.99-0.87,1.76-1.86,1.72l-8.21-0.3C231.97,282.73,231.2,281.89,231.24,280.91z M233.21,275.9
				c-0.18-0.01-0.34,0.14-0.34,0.32l-0.18,4.75c-0.01,0.18,0.14,0.34,0.32,0.34l8.21,0.3c0.18,0.01,0.34-0.14,0.34-0.32l0.18-4.75
				c0.01-0.18-0.14-0.34-0.32-0.34L233.21,275.9z"/>
		</g>
	</g>
	<g>
		<g>
			<path class="st6" d="M216.54,280.36l0.18-4.75c0.04-0.99,0.87-1.76,1.86-1.72l8.21,0.3c0.99,0.04,1.76,0.87,1.72,1.86l-0.18,4.75
				c-0.04,0.99-0.87,1.76-1.86,1.72l-8.21-0.3C217.28,282.18,216.5,281.35,216.54,280.36z M218.52,275.35
				c-0.18-0.01-0.34,0.14-0.34,0.32l-0.18,4.75c-0.01,0.18,0.14,0.34,0.32,0.34l8.21,0.3c0.18,0.01,0.34-0.14,0.34-0.32l0.18-4.75
				c0.01-0.18-0.14-0.34-0.32-0.34L218.52,275.35z"/>
		</g>
	</g>
	<path class="st6" d="M255.58,316.91c0.01-0.26-0.02-0.51-0.08-0.74l7.29,0.27c0.53,0.02,0.94,0.46,0.92,0.99s-0.46,0.94-0.99,0.92
		l-7.46-0.28C255.45,317.73,255.56,317.34,255.58,316.91z"/>
	<g>
		<g>
			<path class="st6" d="M202.21,279.84l0.18-4.75c0.04-0.99,0.87-1.76,1.86-1.72l8.21,0.3c0.99,0.04,1.76,0.87,1.72,1.86l-0.18,4.75
				c-0.04,0.99-0.87,1.76-1.86,1.72l-8.21-0.3C202.94,281.65,202.17,280.82,202.21,279.84z M204.18,274.82
				c-0.18-0.01-0.34,0.14-0.34,0.32l-0.18,4.75c-0.01,0.18,0.14,0.34,0.32,0.34l8.21,0.3c0.18,0.01,0.34-0.14,0.34-0.32l0.18-4.75
				c0.01-0.18-0.14-0.34-0.32-0.34L204.18,274.82z"/>
		</g>
	</g>
	<g>
		<g>
			<path class="st6" d="M188.01,279.36l0.15-4.13c0.05-1.35,1.19-2.41,2.54-2.36l7.59,0.28c0.96,0.04,1.72,0.85,1.68,1.81
				l-0.18,4.83c-0.04,0.96-0.85,1.72-1.81,1.68l-8.3-0.31C188.73,281.13,187.98,280.32,188.01,279.36z M190.66,274.32
				c-0.55-0.02-1.01,0.41-1.03,0.96l-0.15,4.13c-0.01,0.16,0.12,0.29,0.28,0.3l8.3,0.31c0.16,0.01,0.29-0.12,0.3-0.28l0.18-4.83
				c0.01-0.16-0.12-0.29-0.28-0.3L190.66,274.32z"/>
		</g>
	</g>
	<g>
		<g>
			<path class="st6" d="M206.96,310.92l38.2,1.41c0.4,0.01,0.74-0.3,0.76-0.7c0.01-0.4-0.3-0.74-0.7-0.76l-38.2-1.41
				c-0.4-0.01-0.74,0.3-0.76,0.7C206.24,310.56,206.56,310.9,206.96,310.92z"/>
		</g>
	</g>
	<g>
		<g>
			<path class="st6" d="M188.53,285.07l69.87,2.58c0.4,0.01,0.74-0.3,0.76-0.7c0.01-0.4-0.3-0.74-0.7-0.76l-69.87-2.58
				c-0.4-0.01-0.74,0.3-0.76,0.7C187.81,284.72,188.13,285.06,188.53,285.07z"/>
		</g>
	</g>
	<g>
		<g>
			<path class="st6" d="M189.77,315.23c0.46,0.02,0.85-0.34,0.87-0.81l0.89-24.16c0.02-0.46-0.34-0.85-0.81-0.87
				c-0.46-0.02-0.85,0.34-0.87,0.81l-0.89,24.16C188.95,314.82,189.31,315.21,189.77,315.23z"/>
		</g>
	</g>
	<path class="st6" d="M246.94,316.57c-0.12,3.29,2.45,6.06,5.74,6.18c3.29,0.12,6.06-2.45,6.18-5.74s-2.45-6.06-5.74-6.18
		C249.83,310.7,247.06,313.27,246.94,316.57z M250.23,316.72c0.05-1.48,1.3-2.63,2.78-2.58c1.48,0.05,2.63,1.3,2.58,2.78
		c-0.05,1.48-1.3,2.63-2.78,2.58C251.32,319.44,250.17,318.2,250.23,316.72z"/>
	<path class="st6" d="M194.05,314.55c-0.12,3.29,2.45,6.06,5.74,6.18c3.29,0.12,6.06-2.45,6.18-5.74s-2.45-6.06-5.74-6.18
		S194.17,311.25,194.05,314.55z M197.34,314.67c0.05-1.48,1.3-2.63,2.78-2.58c1.48,0.05,2.63,1.3,2.58,2.78s-1.3,2.63-2.78,2.58
		C198.44,317.39,197.28,316.15,197.34,314.67z"/>
	<g>
		<path class="st6" d="M202.52,315.7c0.1-0.26,0.16-0.54,0.17-0.83c0.01-0.29-0.03-0.58-0.11-0.84l47.85,1.77
			c-0.12,0.29-0.19,0.6-0.21,0.93c-0.01,0.26,0.02,0.51,0.08,0.75L202.52,315.7z"/>
		<path class="st6" d="M194.27,267.01l56.09,2.07c3.33,0.12,6.07,1.36,8.15,3.67c4.84,5.37,4.77,14.95,4.52,18.83
			c-0.07,1.03-0.94,1.84-1.97,1.84l-6.29-0.01c-0.16,0-0.29,0.12-0.29,0.28l-0.33,8.8c-0.01,0.16,0.12,0.3,0.28,0.3l6.15,0.23
			c1.09,0.04,1.94,0.96,1.9,2.04l-0.4,10.87c-0.04,1.09-0.96,1.94-2.04,1.9l-4.59-0.17c0.08-0.23,0.13-0.48,0.13-0.74
			c0.01-0.33-0.04-0.65-0.14-0.94l4.65,0.17c0.16,0.01,0.3-0.12,0.3-0.28l0.4-10.87c0.01-0.16-0.12-0.3-0.28-0.3l-6.15-0.23
			c-1.09-0.04-1.94-0.96-1.9-2.04l0.33-8.8c0.04-1.07,0.91-1.9,1.98-1.9l6.29,0.01c0.16,0,0.28-0.12,0.29-0.27
			c0.19-2.85,0.45-12.56-4.09-17.59c-1.77-1.96-4.11-3.01-6.97-3.11l-56.09-2.07c-4.49-0.17-8.28,3.35-8.44,7.84l-1.35,36.53
			c-0.01,0.16,0.12,0.3,0.28,0.3l12.8,0.47c-0.1,0.26-0.16,0.54-0.17,0.83c-0.01,0.29,0.03,0.58,0.11,0.84l-12.8-0.47
			c-1.09-0.04-1.94-0.96-1.9-2.04l1.35-36.53C184.29,271.05,188.86,266.81,194.27,267.01z"/>
	</g>
	<g>
		<path class="st6" d="M202.32,316.13c0.22-0.37,0.35-0.8,0.37-1.26c0.01-0.22-0.01-0.44-0.06-0.65l47.73,1.76
			c-0.08,0.23-0.12,0.48-0.13,0.74c-0.02,0.42,0.07,0.82,0.23,1.19L202.32,316.13z"/>
		<path class="st6" d="M181.22,313.43l16.22,0.6c-0.06,0.21-0.1,0.42-0.11,0.64c-0.02,0.46,0.08,0.9,0.27,1.28l-16.46-0.61
			c-0.53-0.02-0.94-0.46-0.92-0.99C180.25,313.82,180.69,313.41,181.22,313.43z"/>
	</g>
	<path class="st6" d="M194.86,289.21c3.84,0.14,6.84,3.68,6.69,7.9l-0.56,15.17c-0.27-0.11-0.57-0.17-0.88-0.19
		s-0.61,0.03-0.89,0.12l0.56-15.17c0.12-3.24-2.12-5.95-4.98-6.06l-10.39-0.38l0.07-1.77L194.86,289.21z"/>
</g>
<g>
	<path class="st8" d="M287.16,272.24l55.52-8.22c12.31-1.82,15.09,14.67,15.61,19.06c0.07,0.59-0.33,1.14-0.92,1.24l-6.19,1.14
		c-0.6,0.11-1.01,0.68-0.92,1.28l1.29,8.71c0.09,0.62,0.67,1.05,1.29,0.95l6.09-0.9c0.62-0.09,1.19,0.34,1.29,0.95l1.59,10.76
		c0.09,0.62-0.34,1.19-0.95,1.29l-1.41,0.21c-0.39-1.23-1.62-2.04-2.94-1.84c-1.32,0.2-2.27,1.32-2.28,2.62l-47.12,6.97
		c-0.36-1.28-1.62-2.13-2.97-1.93c-1.35,0.2-2.32,1.38-2.28,2.71l-15.63,2.31c-0.62,0.09-1.19-0.34-1.29-0.95l-5.35-36.16
		C278.86,277.54,282.25,272.97,287.16,272.24z"/>
	<g>
		<g>
			<path class="st6" d="M340.83,297.69l-1.38-9.33c-0.15-1.04,0.57-2.01,1.6-2.16l5.97-0.88c1.04-0.15,2.01,0.57,2.16,1.6l1.38,9.33
				c0.15,1.04-0.57,2.01-1.6,2.16l-5.97,0.88C341.95,299.44,340.98,298.72,340.83,297.69z M341.3,287.86
				c-0.12,0.02-0.2,0.13-0.19,0.25l1.38,9.33c0.02,0.12,0.13,0.2,0.25,0.19l5.97-0.88c0.12-0.02,0.2-0.13,0.19-0.25l-1.38-9.33
				c-0.02-0.12-0.13-0.2-0.25-0.19L341.3,287.86z"/>
		</g>
	</g>
	<g>
		<g>
			<path class="st6" d="M329.63,299.34l-1.38-9.33c-0.15-1.04,0.57-2.01,1.6-2.16l5.97-0.88c1.04-0.15,2.01,0.57,2.16,1.6l1.38,9.33
				c0.15,1.04-0.57,2.01-1.6,2.16l-5.97,0.88C330.75,301.1,329.78,300.38,329.63,299.34z M330.1,289.52
				c-0.12,0.02-0.2,0.13-0.19,0.25l1.38,9.33c0.02,0.12,0.13,0.2,0.25,0.19l5.97-0.88c0.12-0.02,0.2-0.13,0.19-0.25l-1.38-9.33
				c-0.02-0.12-0.13-0.2-0.25-0.19L330.1,289.52z"/>
		</g>
	</g>
	<g>
		<g>
			<path class="st6" d="M318.15,301.04l-1.38-9.33c-0.15-1.04,0.57-2.01,1.6-2.16l5.97-0.88c1.04-0.15,2.01,0.57,2.16,1.6l1.38,9.33
				c0.15,1.04-0.57,2.01-1.6,2.16l-5.97,0.88C319.27,302.8,318.31,302.08,318.15,301.04z M318.62,291.22
				c-0.12,0.02-0.2,0.13-0.19,0.25l1.38,9.33c0.02,0.12,0.13,0.2,0.25,0.19l5.97-0.88c0.12-0.02,0.2-0.13,0.19-0.25l-1.38-9.33
				c-0.02-0.12-0.13-0.2-0.25-0.19L318.62,291.22z"/>
		</g>
	</g>
	<g>
		<g>
			<path class="st6" d="M306.96,302.7l-1.38-9.33c-0.15-1.04,0.57-2.01,1.6-2.16l5.97-0.88c1.04-0.15,2.01,0.57,2.16,1.6l1.38,9.33
				c0.15,1.04-0.57,2.01-1.6,2.16l-5.97,0.88C308.08,304.46,307.11,303.74,306.96,302.7z M307.42,292.87
				c-0.12,0.02-0.2,0.13-0.19,0.25l1.38,9.33c0.02,0.12,0.13,0.2,0.25,0.19l5.97-0.88c0.12-0.02,0.2-0.13,0.19-0.25l-1.38-9.33
				c-0.02-0.12-0.13-0.2-0.25-0.19L307.42,292.87z"/>
		</g>
	</g>
	<g>
		<g>
			<path class="st6" d="M343.23,276.13l-0.71-4.79c-0.14-0.95,0.52-1.84,1.47-1.98l7.51-1.11c1.34-0.2,2.59,0.73,2.79,2.07l0.6,4.08
				c0.14,0.95-0.52,1.84-1.47,1.98l-8.21,1.22C344.26,277.75,343.37,277.09,343.23,276.13z M344.2,270.81
				c-0.16,0.02-0.27,0.17-0.24,0.33l0.71,4.79c0.02,0.16,0.17,0.27,0.33,0.24l8.21-1.22c0.16-0.02,0.27-0.17,0.24-0.33l-0.6-4.08
				c-0.08-0.54-0.59-0.92-1.13-0.84L344.2,270.81z"/>
		</g>
	</g>
	<g>
		<g>
			<path class="st6" d="M329.03,278.19l-0.7-4.7c-0.14-0.98,0.53-1.89,1.51-2.03l8.12-1.2c0.98-0.14,1.89,0.53,2.03,1.51l0.7,4.7
				c0.14,0.98-0.53,1.89-1.51,2.03l-8.12,1.2C330.09,279.84,329.18,279.17,329.03,278.19z M330.06,272.9
				c-0.18,0.03-0.31,0.2-0.28,0.38l0.7,4.7c0.03,0.18,0.2,0.31,0.38,0.28l8.12-1.2c0.18-0.03,0.31-0.2,0.28-0.38l-0.7-4.7
				c-0.03-0.18-0.2-0.31-0.38-0.28L330.06,272.9z"/>
		</g>
	</g>
	<g>
		<g>
			<path class="st6" d="M314.48,280.34l-0.7-4.7c-0.14-0.98,0.53-1.89,1.51-2.03l8.12-1.2c0.98-0.14,1.89,0.53,2.03,1.51l0.7,4.7
				c0.14,0.98-0.53,1.89-1.51,2.03l-8.12,1.2C315.54,282,314.63,281.32,314.48,280.34z M315.51,275.05
				c-0.18,0.03-0.31,0.2-0.28,0.38l0.7,4.7c0.03,0.18,0.2,0.31,0.38,0.28l8.12-1.2c0.18-0.03,0.31-0.2,0.28-0.38l-0.7-4.7
				c-0.03-0.18-0.2-0.31-0.38-0.28L315.51,275.05z"/>
		</g>
	</g>
	<path class="st6" d="M359.55,309.14c-0.04-0.25-0.11-0.49-0.21-0.72l7.22-1.07c0.52-0.08,1.01,0.28,1.09,0.81
		c0.08,0.52-0.28,1.01-0.81,1.09l-7.39,1.09C359.57,309.97,359.61,309.56,359.55,309.14z"/>
	<g>
		<g>
			<path class="st6" d="M300.29,282.44l-0.7-4.7c-0.14-0.98,0.53-1.89,1.51-2.03l8.12-1.2c0.98-0.14,1.89,0.53,2.03,1.51l0.7,4.7
				c0.14,0.98-0.53,1.89-1.51,2.03l-8.12,1.2C301.35,284.1,300.44,283.42,300.29,282.44z M301.32,277.15
				c-0.18,0.03-0.31,0.2-0.28,0.38l0.7,4.7c0.03,0.18,0.2,0.31,0.38,0.28l8.12-1.2c0.18-0.03,0.31-0.2,0.28-0.38l-0.7-4.7
				c-0.03-0.18-0.2-0.31-0.38-0.28L301.32,277.15z"/>
		</g>
	</g>
	<g>
		<g>
			<path class="st6" d="M286.25,284.57l-0.6-4.08c-0.2-1.34,0.73-2.59,2.07-2.79l7.51-1.11c0.95-0.14,1.84,0.52,1.98,1.47l0.71,4.79
				c0.14,0.95-0.52,1.84-1.47,1.98l-8.21,1.22C287.28,286.18,286.39,285.52,286.25,284.57z M287.93,279.14
				c-0.54,0.08-0.92,0.59-0.84,1.13l0.6,4.08c0.02,0.16,0.17,0.27,0.33,0.24l8.21-1.22c0.16-0.02,0.27-0.17,0.24-0.33l-0.71-4.79
				c-0.02-0.16-0.17-0.27-0.33-0.24L287.93,279.14z"/>
		</g>
	</g>
	<g>
		<g>
			<path class="st6" d="M310.65,312.13l37.82-5.6c0.4-0.06,0.67-0.43,0.61-0.83c-0.06-0.4-0.43-0.67-0.83-0.61l-37.81,5.6
				c-0.4,0.06-0.67,0.43-0.61,0.83C309.88,311.92,310.25,312.19,310.65,312.13z"/>
		</g>
	</g>
	<g>
		<g>
			<path class="st6" d="M287.81,290.09l69.17-10.24c0.4-0.06,0.67-0.43,0.61-0.83s-0.43-0.67-0.83-0.61l-69.17,10.24
				c-0.4,0.06-0.67,0.43-0.61,0.83C287.04,289.87,287.41,290.15,287.81,290.09z"/>
		</g>
	</g>
	<g>
		<g>
			<path class="st6" d="M294.54,319.51c0.46-0.07,0.78-0.5,0.71-0.95l-3.54-23.91c-0.07-0.46-0.49-0.78-0.95-0.71
				s-0.78,0.5-0.71,0.95l3.54,23.91C293.65,319.27,294.08,319.58,294.54,319.51z"/>
		</g>
	</g>
	<path class="st6" d="M350.99,310.38c0.48,3.26,3.52,5.51,6.78,5.03c3.26-0.48,5.51-3.52,5.03-6.78s-3.52-5.51-6.78-5.03
		C352.76,304.08,350.51,307.12,350.99,310.38z M354.25,309.92c-0.22-1.46,0.79-2.83,2.26-3.04c1.46-0.22,2.83,0.79,3.04,2.26
		c0.22,1.46-0.79,2.83-2.26,3.04C355.82,312.4,354.46,311.39,354.25,309.92z"/>
	<path class="st6" d="M298.62,318.06c0.48,3.26,3.52,5.51,6.78,5.03s5.51-3.52,5.03-6.78s-3.52-5.51-6.78-5.03
		C300.39,311.77,298.14,314.8,298.62,318.06z M301.87,317.58c-0.22-1.46,0.79-2.83,2.26-3.04c1.46-0.22,2.83,0.79,3.04,2.26
		c0.22,1.46-0.79,2.83-2.26,3.04C303.45,320.05,302.09,319.04,301.87,317.58z"/>
	<g>
		<path class="st6" d="M307.16,317.65c0.05-0.27,0.05-0.56,0.01-0.85c-0.04-0.29-0.13-0.56-0.26-0.81l47.36-7.01
			c-0.06,0.3-0.08,0.62-0.03,0.95c0.04,0.26,0.11,0.5,0.22,0.72L307.16,317.65z"/>
		<path class="st6" d="M290.15,271.29l55.52-8.22c3.29-0.49,6.21,0.22,8.68,2.11c5.74,4.39,7.43,13.83,7.88,17.68
			c0.12,1.03-0.58,1.98-1.6,2.17l-6.19,1.14c-0.16,0.03-0.26,0.17-0.24,0.33l1.29,8.71c0.02,0.16,0.17,0.27,0.33,0.25l6.09-0.9
			c1.08-0.16,2.08,0.59,2.24,1.66l1.59,10.76c0.16,1.08-0.59,2.08-1.66,2.24l-4.54,0.67c0.03-0.24,0.04-0.5,0-0.75
			c-0.05-0.33-0.16-0.63-0.31-0.9l4.61-0.68c0.16-0.02,0.27-0.17,0.25-0.33l-1.59-10.76c-0.02-0.16-0.17-0.27-0.33-0.25l-6.09,0.9
			c-1.08,0.16-2.08-0.59-2.24-1.66l-1.29-8.71c-0.16-1.06,0.54-2.04,1.6-2.23l6.19-1.14c0.15-0.03,0.26-0.17,0.24-0.32
			c-0.34-2.84-1.85-12.43-7.23-16.55c-2.1-1.6-4.59-2.2-7.42-1.79l-55.52,8.22c-4.44,0.66-7.52,4.81-6.87,9.25l5.35,36.16
			c0.02,0.16,0.17,0.27,0.33,0.25l12.67-1.88c-0.05,0.27-0.05,0.56-0.01,0.85s0.13,0.56,0.26,0.81l-12.67,1.88
			c-1.08,0.16-2.08-0.59-2.24-1.66l-5.35-36.16C281.07,277.09,284.79,272.08,290.15,271.29z"/>
	</g>
	<g>
		<path class="st6" d="M307.04,318.1c0.15-0.4,0.2-0.85,0.13-1.31c-0.03-0.22-0.09-0.43-0.18-0.63l47.24-6.99
			c-0.03,0.24-0.03,0.49,0,0.75c0.06,0.42,0.22,0.8,0.44,1.12L307.04,318.1z"/>
		<path class="st6" d="M285.81,319.3l16.05-2.38c-0.02,0.21-0.02,0.43,0.01,0.65c0.07,0.46,0.25,0.87,0.5,1.21l-16.29,2.41
			c-0.52,0.08-1.01-0.28-1.09-0.81C284.92,319.87,285.28,319.38,285.81,319.3z"/>
	</g>
	<path class="st6" d="M294.79,293c3.8-0.56,7.4,2.37,8.02,6.54l2.22,15.02c-0.29-0.06-0.59-0.07-0.9-0.02
		c-0.31,0.05-0.59,0.14-0.85,0.28l-2.22-15.02c-0.47-3.2-3.17-5.47-6.01-5.05l-10.28,1.52l-0.26-1.75L294.79,293z"/>
</g>
<g>
	<path class="st8" d="M373.92,147.15l-63.76-3.65c-14.13-0.81-15.6,18.17-15.75,23.2c-0.02,0.68,0.49,1.25,1.17,1.32l7.13,0.66
		c0.69,0.06,1.21,0.66,1.17,1.36l-0.57,10.01c-0.04,0.71-0.65,1.25-1.36,1.21l-7-0.4c-0.71-0.04-1.32,0.5-1.36,1.21l-0.71,12.36
		c-0.04,0.71,0.5,1.32,1.21,1.36l1.62,0.09c0.32-1.44,1.63-2.48,3.15-2.39c1.52,0.09,2.71,1.27,2.85,2.73l54.11,3.1
		c0.27-1.49,1.62-2.58,3.17-2.49c1.55,0.09,2.77,1.33,2.87,2.84l17.95,1.03c0.71,0.04,1.32-0.5,1.36-1.21l2.38-41.53
		C383.86,152.31,379.55,147.47,373.92,147.15z"/>
	<g>
		<g>
			<path class="st6" d="M313.4,183.5l-6.85-0.39c-1.19-0.07-2.11-1.09-2.04-2.28l0.61-10.71c0.07-1.19,1.09-2.11,2.28-2.04
				l6.85,0.39c1.19,0.07,2.11,1.09,2.04,2.28l-0.61,10.71C315.62,182.66,314.59,183.57,313.4,183.5z M307.3,169.98
				c-0.14-0.01-0.26,0.1-0.27,0.24l-0.61,10.71c-0.01,0.14,0.1,0.26,0.24,0.27l6.85,0.39c0.14,0.01,0.26-0.1,0.27-0.24l0.61-10.71
				c0.01-0.14-0.1-0.26-0.24-0.27L307.3,169.98z"/>
		</g>
	</g>
	<g>
		<g>
			<path class="st6" d="M326.26,184.24l-6.85-0.39c-1.19-0.07-2.11-1.09-2.04-2.28l0.61-10.71c0.07-1.19,1.09-2.11,2.28-2.04
				l6.85,0.39c1.19,0.07,2.11,1.09,2.04,2.28l-0.61,10.71C328.47,183.39,327.45,184.31,326.26,184.24z M320.16,170.72
				c-0.14-0.01-0.26,0.1-0.27,0.24l-0.61,10.71c-0.01,0.14,0.1,0.26,0.24,0.27l6.85,0.39c0.14,0.01,0.26-0.1,0.27-0.24l0.61-10.71
				c0.01-0.14-0.1-0.26-0.24-0.27L320.16,170.72z"/>
		</g>
	</g>
	<g>
		<g>
			<path class="st6" d="M339.44,184.99l-6.85-0.39c-1.19-0.07-2.11-1.09-2.04-2.28l0.61-10.71c0.07-1.19,1.09-2.11,2.28-2.04
				l6.85,0.39c1.19,0.07,2.11,1.09,2.04,2.28l-0.61,10.71C341.66,184.15,340.63,185.06,339.44,184.99z M333.34,171.47
				c-0.14-0.01-0.26,0.1-0.27,0.24l-0.61,10.71c-0.01,0.14,0.1,0.26,0.24,0.27l6.85,0.39c0.14,0.01,0.26-0.1,0.27-0.24l0.61-10.71
				c0.01-0.14-0.1-0.26-0.24-0.27L333.34,171.47z"/>
		</g>
	</g>
	<g>
		<g>
			<path class="st6" d="M352.3,185.73l-6.85-0.39c-1.19-0.07-2.11-1.09-2.04-2.28l0.61-10.71c0.07-1.19,1.09-2.11,2.28-2.04
				l6.85,0.39c1.19,0.07,2.11,1.09,2.04,2.28l-0.61,10.71C354.52,184.88,353.49,185.8,352.3,185.73z M346.2,172.21
				c-0.14-0.01-0.26,0.1-0.27,0.24l-0.61,10.71c-0.01,0.14,0.1,0.26,0.24,0.27l6.85,0.39c0.14,0.01,0.26-0.1,0.27-0.24l0.61-10.71
				c0.01-0.14-0.1-0.26-0.24-0.27L346.2,172.21z"/>
		</g>
	</g>
	<g>
		<g>
			<path class="st6" d="M308.67,159.15l-9.43-0.54c-1.09-0.06-1.93-1-1.87-2.1l0.27-4.69c0.09-1.54,1.41-2.72,2.95-2.63l8.63,0.49
				c1.09,0.06,1.93,1,1.87,2.1l-0.31,5.5C310.7,158.38,309.76,159.22,308.67,159.15z M300.49,150.85c-0.62-0.04-1.16,0.44-1.2,1.07
				l-0.27,4.69c-0.01,0.18,0.13,0.34,0.31,0.35l9.43,0.54c0.18,0.01,0.34-0.13,0.35-0.31l0.31-5.5c0.01-0.18-0.13-0.34-0.31-0.35
				L300.49,150.85z"/>
		</g>
	</g>
	<g>
		<g>
			<path class="st6" d="M324.91,160.08l-9.33-0.53c-1.12-0.06-1.98-1.03-1.92-2.15l0.31-5.4c0.06-1.12,1.03-1.98,2.15-1.92
				l9.33,0.53c1.12,0.06,1.98,1.03,1.92,2.15l-0.31,5.4C327,159.29,326.04,160.15,324.91,160.08z M316.03,151.74
				c-0.21-0.01-0.39,0.15-0.4,0.36l-0.31,5.4c-0.01,0.21,0.15,0.39,0.36,0.4l9.33,0.53c0.21,0.01,0.39-0.15,0.4-0.36l0.31-5.4
				c0.01-0.21-0.15-0.39-0.36-0.4L316.03,151.74z"/>
		</g>
	</g>
	<g>
		<g>
			<path class="st6" d="M341.62,161.04l-9.33-0.53c-1.12-0.06-1.98-1.03-1.92-2.15l0.31-5.4c0.06-1.12,1.03-1.98,2.15-1.92
				l9.33,0.53c1.12,0.06,1.98,1.03,1.92,2.15l-0.31,5.4C343.71,160.24,342.74,161.1,341.62,161.04z M332.74,152.7
				c-0.21-0.01-0.39,0.15-0.4,0.36l-0.31,5.4c-0.01,0.21,0.15,0.39,0.36,0.4l9.33,0.53c0.21,0.01,0.39-0.15,0.4-0.36l0.31-5.4
				c0.01-0.21-0.15-0.39-0.36-0.4L332.74,152.7z"/>
		</g>
	</g>
	<path class="st6" d="M295.64,196.36c0.02-0.29,0.08-0.57,0.17-0.83l-8.29-0.47c-0.6-0.03-1.12,0.43-1.15,1.03
		c-0.03,0.6,0.43,1.12,1.03,1.15l8.48,0.49C295.7,197.3,295.61,196.84,295.64,196.36z"/>
	<g>
		<g>
			<path class="st6" d="M357.92,161.97l-9.33-0.53c-1.12-0.06-1.98-1.03-1.92-2.15l0.31-5.4c0.06-1.12,1.03-1.98,2.15-1.92
				l9.33,0.53c1.12,0.06,1.98,1.03,1.92,2.15l-0.31,5.4C360.01,161.17,359.04,162.04,357.92,161.97z M349.03,153.63
				c-0.21-0.01-0.39,0.15-0.4,0.36l-0.31,5.4c-0.01,0.21,0.15,0.39,0.36,0.4l9.33,0.53c0.21,0.01,0.39-0.15,0.4-0.36l0.31-5.4
				c0.01-0.21-0.15-0.39-0.36-0.4L349.03,153.63z"/>
		</g>
	</g>
	<g>
		<g>
			<path class="st6" d="M374.1,162.9l-9.43-0.54c-1.09-0.06-1.93-1-1.87-2.1l0.31-5.5c0.06-1.09,1-1.93,2.1-1.87l8.63,0.49
				c1.54,0.09,2.72,1.41,2.63,2.95l-0.27,4.69C376.14,162.12,375.2,162.96,374.1,162.9z M365.12,154.55
				c-0.18-0.01-0.34,0.13-0.35,0.31l-0.31,5.5c-0.01,0.18,0.13,0.34,0.31,0.35l9.43,0.54c0.18,0.01,0.34-0.13,0.35-0.31l0.27-4.69
				c0.04-0.62-0.44-1.16-1.07-1.2L365.12,154.55z"/>
		</g>
	</g>
	<g>
		<g>
			<path class="st6" d="M351.36,194.76l-43.43-2.48c-0.46-0.03-0.81-0.42-0.78-0.88c0.03-0.46,0.42-0.81,0.88-0.78l43.43,2.48
				c0.46,0.03,0.81,0.42,0.78,0.88C352.21,194.44,351.82,194.78,351.36,194.76z"/>
		</g>
	</g>
	<g>
		<g>
			<path class="st6" d="M375,167.45l-79.44-4.54c-0.46-0.03-0.81-0.42-0.78-0.88c0.03-0.46,0.42-0.81,0.88-0.78l79.44,4.54
				c0.46,0.03,0.81,0.42,0.78,0.88C375.85,167.12,375.46,167.47,375,167.45z"/>
		</g>
	</g>
	<g>
		<g>
			<path class="st6" d="M370.37,201.48c-0.53-0.03-0.93-0.48-0.9-1.01l1.57-27.46c0.03-0.53,0.48-0.93,1.01-0.9s0.93,0.48,0.9,1.01
				l-1.57,27.46C371.35,201.11,370.9,201.51,370.37,201.48z"/>
		</g>
	</g>
	<path class="st6" d="M299.07,189.72c-3.74-0.21-6.95,2.65-7.17,6.39c-0.21,3.74,2.65,6.95,6.39,7.17c3.74,0.21,6.95-2.65,7.17-6.39
		C305.68,193.14,302.81,189.93,299.07,189.72z M298.51,199.57c-1.68-0.1-2.97-1.54-2.87-3.22c0.1-1.68,1.54-2.97,3.22-2.87
		c1.68,0.1,2.97,1.54,2.87,3.22C301.63,198.39,300.19,199.67,298.51,199.57z"/>
	<path class="st6" d="M359.21,193.08c-3.74-0.21-6.95,2.65-7.17,6.39c-0.21,3.74,2.65,6.95,6.39,7.17c3.74,0.21,6.95-2.65,7.17-6.39
		C365.81,196.51,362.95,193.3,359.21,193.08z M358.65,202.91c-1.68-0.1-2.97-1.54-2.87-3.22c0.1-1.68,1.54-2.97,3.22-2.87
		c1.68,0.1,2.97,1.54,2.87,3.22C361.77,201.72,360.33,203,358.65,202.91z"/>
	<g>
		<path class="st6" d="M355.88,200.65c-0.08-0.31-0.12-0.63-0.1-0.96c0.02-0.33,0.09-0.65,0.21-0.95l-54.39-3.11
			c0.1,0.34,0.15,0.7,0.13,1.07c-0.02,0.29-0.08,0.58-0.17,0.84L355.88,200.65z"/>
		<path class="st6" d="M370.43,146.37l-63.76-3.65c-3.78-0.22-7.02,0.89-9.63,3.28c-6.06,5.56-7,16.43-7.13,20.85
			c-0.03,1.18,0.86,2.19,2.04,2.3l7.13,0.66c0.18,0.02,0.31,0.17,0.3,0.35l-0.57,10.01c-0.01,0.18-0.17,0.32-0.35,0.31l-7-0.4
			c-1.24-0.07-2.3,0.88-2.37,2.11l-0.71,12.36c-0.07,1.24,0.88,2.3,2.11,2.37l5.22,0.3c-0.06-0.27-0.09-0.56-0.07-0.85
			c0.02-0.37,0.11-0.73,0.26-1.05l-5.29-0.3c-0.18-0.01-0.32-0.17-0.31-0.35L291,182.3c0.01-0.18,0.17-0.32,0.35-0.31l7,0.4
			c1.24,0.07,2.3-0.88,2.37-2.11l0.57-10.01c0.07-1.21-0.82-2.25-2.04-2.36l-7.13-0.66c-0.18-0.02-0.31-0.16-0.3-0.34
			c0.09-3.25,0.83-14.28,6.51-19.49c2.21-2.03,4.98-2.97,8.22-2.78l63.76,3.65c5.1,0.29,9.02,4.68,8.73,9.79l-2.38,41.53
			c-0.01,0.18-0.17,0.32-0.35,0.31l-14.55-0.83c0.08,0.31,0.12,0.63,0.1,0.96c-0.02,0.33-0.09,0.65-0.21,0.95l14.55,0.83
			c1.24,0.07,2.3-0.88,2.37-2.11l2.38-41.53C381.3,152.02,376.58,146.72,370.43,146.37z"/>
	</g>
	<g>
		<path class="st6" d="M356.06,201.15c-0.21-0.44-0.31-0.94-0.28-1.47c0.01-0.25,0.06-0.5,0.14-0.73l-54.26-3.1
			c0.06,0.27,0.09,0.56,0.07,0.85c-0.03,0.48-0.17,0.93-0.39,1.32L356.06,201.15z"/>
		<path class="st6" d="M380.25,200.35l-18.44-1.05c0.04,0.24,0.07,0.49,0.05,0.74c-0.03,0.52-0.19,1.01-0.45,1.42l18.71,1.07
			c0.6,0.03,1.12-0.43,1.15-1.03C381.31,200.9,380.85,200.39,380.25,200.35z"/>
	</g>
	<path class="st6" d="M367.39,171.45c-4.37-0.25-8.15,3.44-8.42,8.23l-0.99,17.25c0.32-0.09,0.66-0.14,1.02-0.12
		c0.35,0.02,0.69,0.1,1,0.23l0.99-17.25c0.21-3.68,3.03-6.52,6.3-6.33l11.81,0.68l0.12-2.01L367.39,171.45z"/>
</g>
</svg>
