<?xml version="1.0" encoding="utf-8"?>
<!-- Generator: Adobe Illustrator 23.0.1, SVG Export Plug-In . SVG Version: 6.00 Build 0)  -->
<svg version="1.1" id="Layer_1" xmlns="http://www.w3.org/2000/svg" xmlns:xlink="http://www.w3.org/1999/xlink" x="0px" y="0px"
	 viewBox="0 0 500 500" style="enable-background:new 0 0 500 500;" xml:space="preserve">
<style type="text/css">
	.st0{clip-path:url(#SVGID_2_);}
	.st1{clip-path:url(#SVGID_4_);}
	.st2{fill:#EE3145;}
	.st3{fill:#FFFFFF;}
	.st4{fill:none;stroke:#1D184B;stroke-width:12;stroke-miterlimit:10;}
	.st5{fill:#FFFFFF;stroke:#1D184B;stroke-width:12;stroke-miterlimit:10;}
	.st6{fill:#1D184B;}
	.st7{fill:none;stroke:#1D184B;stroke-miterlimit:10;}
	.st8{fill:#ED3045;}
	.st9{fill:none;stroke:#1D184B;stroke-width:3;stroke-miterlimit:10;}
	.st10{fill:none;stroke:#1D184B;stroke-width:4;stroke-miterlimit:10;}
	.st11{fill:none;stroke:#1D184B;stroke-width:2;stroke-miterlimit:10;}
	.st12{fill:none;stroke:#1D184B;stroke-width:9;stroke-miterlimit:10;}
	.st13{fill:none;stroke:#1D184B;stroke-width:5;stroke-miterlimit:10;}
	.st14{fill:#FFFFFF;stroke:#1D184B;stroke-width:5;stroke-miterlimit:10;}
	.st15{fill:none;stroke:#1D184B;stroke-width:7;stroke-miterlimit:10;}
	.st16{fill:#FFFFFF;stroke:#1D184B;stroke-width:2;stroke-miterlimit:10;}
	.st17{fill:none;stroke:#1D184B;stroke-width:13;stroke-miterlimit:10;}
</style>
<g>
	<circle class="st2" cx="258.02" cy="271.72" r="218.12"/>
	<circle class="st3" cx="258.02" cy="271.72" r="181.25"/>
</g>
<circle class="st4" cx="250.4" cy="263.06" r="181.25"/>
<path class="st2" d="M259.64,394.07c0,0-14.59-12.68,2.93-27.46c0,0,77.28-80.15,80.35-87.36c0,0,5.89-2.19,1.08-17.4
	c-4.8-15.21,20.3-24.7,20.3-24.7s18.94-2.52,23.06,4.87c0,0-0.08,0.96-5.88,4.17s-25.5,11.04-16.29,22.5c0,0,7.36,21.81,30.07-6.57
	c0,0,10.75,14.53-6.48,28.54c0,0-11.02,5.62-22.91,2.6c0,0-11.11,7.3-14.22,13.92c0,0-68.16,81.12-66.86,82.91
	C284.8,390.1,272.89,404.32,259.64,394.07z"/>
<path class="st9" d="M258.5,390.08c0,0-14.59-12.68,2.93-27.46c0,0,77.28-80.15,80.35-87.36c0,0,5.89-2.19,1.08-17.4
	c-4.8-15.21,20.3-24.7,20.3-24.7s18.94-2.52,23.06,4.87c0,0-0.08,0.96-5.88,4.17c-5.8,3.21-25.5,11.04-16.29,22.5
	c0,0,7.36,21.81,30.07-6.57c0,0,10.75,14.53-6.48,28.54c0,0-11.02,5.62-22.91,2.6c0,0-11.11,7.3-14.22,13.92
	c0,0-68.16,81.12-66.86,82.91C283.66,386.11,271.75,400.33,258.5,390.08z"/>
<circle class="st10" cx="268.77" cy="378.91" r="6.73"/>
<path class="st10" d="M271.85,363.81l71.2-80.24c0,0,6.01-7.67,9.28-2.9c0,0,5.65,4.87-0.26,10.17l-66.43,81.96
	C285.64,372.8,283.39,361.87,271.85,363.81z"/>
<path class="st9" d="M254.71,372.38c0,0-2.09-0.54,4.3-9.25l82.6-89.5c0,0,3.65-0.58,0.42-19.82c0,0,0.03-4.08,2.75-7.78
	c0,0-3.62,5.14-1.19,10.58s3.2,16.36-0.63,18.03L254.71,372.38z"/>
<circle class="st4" cx="250" cy="258.24" r="218.12"/>
<path class="st11" d="M126.37,225.4l-2.65-14.18c0,0-0.31-3.8,1.75-2.33c2.06,1.47,18.52,12.95,18.52,12.95s3.72,3.43,3.45,6.55
	l3.45,14.55L126.37,225.4z"/>
<path class="st11" d="M124.32,208.6l2.12-0.32c0,0,12.24,7.25,14.57,10.52c0,0,4.43,3.79,4.89,5.28c0,0-2.38-3.1-2.91-2.93
	c-0.54,0.17-16.76-11.72-16.76-11.72S124.65,208.18,124.32,208.6z"/>
<polygon class="st11" points="126.37,225.4 135.03,282.34 159.53,297.26 150.66,242.98 "/>
<g>
	<g>
		<path class="st2" d="M129.54,227.34l-2.65-14.18c0,0-0.31-3.8,1.75-2.33c2.06,1.47,18.52,12.95,18.52,12.95s3.72,3.43,3.45,6.55
			l3.45,14.55L129.54,227.34z"/>
		<path class="st2" d="M129.61,210.22c0,0,19.44,11.87,20.42,18.04c0.98,6.17,3.8,16.66,3.8,16.66l162.03-46.76l-1.2-13.05
			c0,0-0.76-5.72-4.14-6.72c-3.39-1-28.31-10.82-28.31-10.82L129.61,210.22z"/>
		<path class="st2" d="M127.49,210.54l2.12-0.32c0,0,12.24,7.25,14.57,10.52c0,0,4.43,3.79,4.89,5.28c0,0-2.38-3.1-2.91-2.93
			c-0.54,0.17-16.76-11.72-16.76-11.72S127.82,210.13,127.49,210.54z"/>
		<polygon class="st2" points="129.54,227.34 138.2,284.29 162.7,299.2 153.83,244.92 		"/>
		<polygon class="st2" points="153.83,244.92 162.7,299.2 325.69,254.48 315.86,198.16 		"/>
		<path class="st2" d="M312.78,180.07c0,0-160.3,44.26-163.35,46.25c0,0,1.08,1.38,1.43,2.73l163.09-46.44
			C313.94,182.62,313.76,182.02,312.78,180.07z"/>
		<polyline class="st2" points="129.54,227.34 153.83,244.92 315.86,198.16 		"/>
		<path class="st2" d="M194.37,200.16c0,0-5.79,2.44-7.28-0.14c-1.49-2.58,2.71-19.07,13.65-23.19c0,0,16.51-5.88,26.76-6.2
			s15.62,15.07,15.27,14.91c0,0-0.3,2.96-4.69,2.51c0,0-0.5-3.71-1.79-4.3c0,0-0.75-8.23-9.57-6.19s-1.33,3.63-26.87,6.97
			c0,0-6.9,2.61-7.03,10.26C192.81,194.79,194.21,194.76,194.37,200.16z"/>
		<path class="st2" d="M180.95,234.37c0,0-0.92,1.43-2.37-2.13c0,0,0.03-0.68-0.92-0.67c-0.95,0.01-2.25,0.36-2.25,0.36
			s-1.24,0.75-1.05,1.9c0.18,1.15,0.63,3.99,0.63,3.99s0.54,1.27,2.04,0.9c1.5-0.37,13.35-3.88,13.35-3.88s1.01-0.48,0.71-1.9
			c-0.29-1.42-0.43-2.75-0.43-2.75s-1.23-1.77-2.01-1.51c-0.77,0.26-2.05,0.32-2.05,0.32s-0.67,1.74-0.4,2.17
			c0.27,0.43,1.27,2.44-0.15,2.03L180.95,234.37z"/>
		<path class="st2" d="M279.97,205.25c0,0-0.92,1.43-2.37-2.13c0,0,0.03-0.68-0.92-0.67c-0.95,0.01-2.25,0.36-2.25,0.36
			s-1.24,0.75-1.05,1.9c0.18,1.15,0.63,3.99,0.63,3.99s0.54,1.27,2.04,0.9s13.35-3.88,13.35-3.88s1.01-0.48,0.71-1.9
			c-0.29-1.42-0.43-2.75-0.43-2.75s-1.23-1.77-2.01-1.51s-2.05,0.32-2.05,0.32s-0.67,1.74-0.4,2.17c0.27,0.43,1.27,2.44-0.15,2.03
			L279.97,205.25z"/>
		<path class="st2" d="M176.38,241.63c0,0,0.77,5.5,1.57,5.96s2.13,0.95,3.43,5.63c1.3,4.68,8.15,1.72,8.15,1.72
			s2.83-0.97,2.09-5.61c0,0-0.15-4,0.74-4.28c0.89-0.28,0.82-0.75,0.63-2.39c-0.19-1.63-0.89-5.61-0.89-5.61s-2.66-2.99-4.32,0.99
			l-6.96,1.83C180.82,239.88,177.64,237.99,176.38,241.63z"/>
		<path class="st2" d="M275.04,212.6c0,0,0.77,5.5,1.57,5.96c0.8,0.46,2.13,0.95,3.43,5.63c1.3,4.68,8.15,1.72,8.15,1.72
			s2.83-0.97,2.09-5.61c0,0-0.15-4,0.74-4.28c0.89-0.28,0.82-0.75,0.63-2.39c-0.19-1.63-0.89-5.61-0.89-5.61s-2.66-2.99-4.32,0.99
			l-6.96,1.83C279.48,210.86,276.3,208.97,275.04,212.6z"/>
		<circle class="st2" cx="277.68" cy="212.65" r="1.54"/>
		<circle class="st2" cx="288.77" cy="209.33" r="1.54"/>
		<circle class="st2" cx="178.92" cy="241.5" r="1.54"/>
		<circle class="st2" cx="190.37" cy="238.17" r="1.54"/>
		<circle class="st2" cx="176.66" cy="233.63" r="1.54"/>
		<circle class="st2" cx="188.28" cy="230.67" r="1.54"/>
		<circle class="st2" cx="275.52" cy="204.57" r="1.54"/>
		<circle class="st2" cx="287.54" cy="201.59" r="1.54"/>
		<path class="st2" d="M184.28,250.17c0,0-1.92,1-2.94-4.18c-1.02-5.18-1.72-9.3-1.72-9.3s0.62-2.15,1.86-1.99
			c0,0-0.97,0.92-0.38,3.4c0.59,2.49,1.56,10.87,2.24,11.09s1.1,0.11,1.1,0.11l0.41,0.81L184.28,250.17z"/>
		<path class="st2" d="M189.73,248.62c0,0,2.16,0.05,0.8-5.05c-1.36-5.1-2.55-9.11-2.55-9.11s-1.51-1.66-2.54-0.97
			c0,0,1.27,0.4,1.84,2.89c0.56,2.49,3.38,10.45,2.86,10.94c-0.52,0.49-0.95,0.58-0.95,0.58l-0.01,0.91L189.73,248.62z"/>
		<path class="st2" d="M181.82,237.75l-1.17-4.38c0,0,2.15-4.02,4.85-1.25l1.1,4.38C186.6,236.5,183.27,236.97,181.82,237.75z"/>
		<path class="st2" d="M182.15,238.08l3.15,16.38c0,0,1.74,3.74,3.69,2.82c1.95-0.92,1.33-4,1.33-4l-1.16-7.31l-1.25-1.92
			c0,0-0.84-6.98-1.22-7.23S182.15,238.08,182.15,238.08z"/>
		<path class="st2" d="M282.78,220.94c0,0-1.92,1-2.94-4.18c-1.02-5.18-1.72-9.3-1.72-9.3s0.62-2.15,1.86-1.99
			c0,0-0.97,0.92-0.38,3.4c0.59,2.49,1.56,10.87,2.24,11.09c0.68,0.21,1.1,0.11,1.1,0.11l0.41,0.81L282.78,220.94z"/>
		<path class="st2" d="M288.23,219.39c0,0,2.16,0.05,0.8-5.05c-1.36-5.1-2.55-9.11-2.55-9.11s-1.51-1.66-2.54-0.97
			c0,0,1.27,0.4,1.84,2.89s3.38,10.45,2.86,10.94c-0.52,0.49-0.95,0.58-0.95,0.58l-0.01,0.91L288.23,219.39z"/>
		<path class="st2" d="M280.32,208.52l-1.17-4.38c0,0,2.15-4.02,4.85-1.25l1.1,4.38C285.1,207.27,281.76,207.74,280.32,208.52z"/>
		<path class="st2" d="M280.65,208.85l3.15,16.38c0,0,1.74,3.74,3.69,2.82c1.95-0.92,1.33-4,1.33-4l-1.16-7.31l-1.25-1.92
			c0,0-0.84-6.98-1.22-7.23C284.8,207.36,280.65,208.85,280.65,208.85z"/>
	</g>
	<path class="st11" d="M126.44,208.27c0,0,19.44,11.87,20.42,18.04s3.8,16.66,3.8,16.66l162.03-46.76l-1.2-13.05
		c0,0-0.76-5.72-4.14-6.72c-3.39-1-28.31-10.82-28.31-10.82L126.44,208.27z"/>
	<polygon class="st11" points="150.66,242.98 159.53,297.26 322.52,252.53 312.69,196.21 	"/>
	<path class="st11" d="M309.61,178.13c0,0-160.3,44.26-163.35,46.25c0,0,1.08,1.38,1.43,2.73l163.09-46.44
		C310.77,180.67,310.59,180.07,309.61,178.13z"/>
	<polyline class="st11" points="126.37,225.4 150.66,242.98 312.69,196.21 	"/>
	<path class="st11" d="M191.2,198.22c0,0-5.79,2.44-7.28-0.14c-1.49-2.58,2.71-19.07,13.65-23.19c0,0,16.51-5.88,26.76-6.2
		c10.24-0.33,15.62,15.07,15.27,14.91c0,0-0.3,2.96-4.69,2.51c0,0-0.5-3.71-1.79-4.3c0,0-0.75-8.23-9.57-6.19
		c-8.82,2.04-1.33,3.63-26.87,6.97c0,0-6.9,2.61-7.03,10.26C189.64,192.85,191.04,192.81,191.2,198.22z"/>
	<path class="st7" d="M177.78,232.43c0,0-0.92,1.43-2.37-2.13c0,0,0.03-0.68-0.92-0.67c-0.95,0.01-2.25,0.36-2.25,0.36
		s-1.24,0.75-1.05,1.9c0.18,1.15,0.63,3.99,0.63,3.99s0.54,1.27,2.04,0.9c1.5-0.37,13.35-3.88,13.35-3.88s1.01-0.48,0.71-1.9
		c-0.29-1.42-0.43-2.75-0.43-2.75s-1.23-1.77-2.01-1.51c-0.77,0.26-2.05,0.32-2.05,0.32s-0.67,1.74-0.4,2.17s1.27,2.44-0.15,2.03
		L177.78,232.43z"/>
	<path class="st7" d="M276.8,203.3c0,0-0.92,1.43-2.37-2.13c0,0,0.03-0.68-0.92-0.67c-0.95,0.01-2.25,0.36-2.25,0.36
		s-1.24,0.75-1.05,1.9c0.18,1.15,0.63,3.99,0.63,3.99s0.54,1.27,2.04,0.9c1.5-0.37,13.35-3.88,13.35-3.88s1.01-0.48,0.71-1.9
		c-0.29-1.42-0.43-2.75-0.43-2.75s-1.23-1.77-2.01-1.51s-2.05,0.32-2.05,0.32s-0.67,1.74-0.4,2.17c0.27,0.43,1.27,2.44-0.15,2.03
		L276.8,203.3z"/>
	<path class="st7" d="M173.21,239.68c0,0,0.77,5.5,1.57,5.96c0.8,0.46,2.13,0.95,3.43,5.63c1.3,4.68,8.15,1.72,8.15,1.72
		s2.83-0.97,2.09-5.61c0,0-0.15-4,0.74-4.28c0.89-0.28,0.82-0.75,0.63-2.39c-0.19-1.63-0.89-5.61-0.89-5.61s-2.66-2.99-4.32,0.99
		l-6.96,1.83C177.65,237.93,174.47,236.05,173.21,239.68z"/>
	<path class="st7" d="M271.87,210.66c0,0,0.77,5.5,1.57,5.96c0.8,0.46,2.13,0.95,3.43,5.63s8.15,1.72,8.15,1.72s2.83-0.97,2.09-5.61
		c0,0-0.15-4,0.74-4.28s0.82-0.75,0.63-2.39c-0.19-1.63-0.89-5.61-0.89-5.61s-2.66-2.99-4.32,0.99l-6.96,1.83
		C276.31,208.91,273.13,207.02,271.87,210.66z"/>
	<circle class="st7" cx="274.51" cy="210.71" r="1.54"/>
	<circle class="st7" cx="285.6" cy="207.38" r="1.54"/>
	<circle class="st7" cx="175.75" cy="239.56" r="1.54"/>
	<circle class="st7" cx="187.2" cy="236.22" r="1.54"/>
	<circle class="st7" cx="173.5" cy="231.68" r="1.54"/>
	<circle class="st7" cx="185.11" cy="228.72" r="1.54"/>
	<circle class="st7" cx="272.35" cy="202.63" r="1.54"/>
	<circle class="st7" cx="284.37" cy="199.64" r="1.54"/>
	<path class="st7" d="M181.11,248.23c0,0-1.92,1-2.94-4.18c-1.02-5.18-1.72-9.3-1.72-9.3s0.62-2.15,1.86-1.99
		c0,0-0.97,0.92-0.38,3.4s1.56,10.87,2.24,11.09s1.1,0.11,1.1,0.11l0.41,0.81L181.11,248.23z"/>
	<path class="st7" d="M186.56,246.67c0,0,2.16,0.05,0.8-5.05c-1.36-5.1-2.55-9.11-2.55-9.11s-1.51-1.66-2.54-0.97
		c0,0,1.27,0.4,1.84,2.89s3.38,10.45,2.86,10.94c-0.52,0.49-0.95,0.58-0.95,0.58l-0.01,0.91L186.56,246.67z"/>
	<path class="st7" d="M178.65,235.8l-1.17-4.38c0,0,2.15-4.02,4.85-1.25l1.1,4.38C183.43,234.55,180.1,235.03,178.65,235.8z"/>
	<path class="st7" d="M178.98,236.13l3.15,16.38c0,0,1.74,3.74,3.69,2.82s1.33-4,1.33-4l-1.16-7.31l-1.25-1.92
		c0,0-0.84-6.98-1.22-7.23C183.14,234.64,178.98,236.13,178.98,236.13z"/>
	<path class="st7" d="M279.61,219c0,0-1.92,1-2.94-4.18c-1.02-5.18-1.72-9.3-1.72-9.3s0.62-2.15,1.86-1.99c0,0-0.97,0.92-0.38,3.4
		c0.59,2.49,1.56,10.87,2.24,11.09c0.68,0.21,1.1,0.11,1.1,0.11l0.41,0.81L279.61,219z"/>
	<path class="st7" d="M285.06,217.44c0,0,2.16,0.05,0.8-5.05c-1.36-5.1-2.55-9.11-2.55-9.11s-1.51-1.66-2.54-0.97
		c0,0,1.27,0.4,1.84,2.89c0.56,2.49,3.38,10.45,2.86,10.94c-0.52,0.49-0.95,0.58-0.95,0.58l-0.01,0.91L285.06,217.44z"/>
	<path class="st7" d="M277.15,206.57l-1.17-4.38c0,0,2.15-4.02,4.85-1.25l1.1,4.38C281.93,205.32,278.59,205.8,277.15,206.57z"/>
	<path class="st7" d="M277.48,206.9l3.15,16.38c0,0,1.74,3.74,3.69,2.82c1.95-0.92,1.33-4,1.33-4l-1.16-7.31l-1.25-1.92
		c0,0-0.84-6.98-1.22-7.23S277.48,206.9,277.48,206.9z"/>
</g>
</svg>
