<?xml version="1.0" encoding="utf-8"?>
<!-- Generator: Adobe Illustrator 23.0.1, SVG Export Plug-In . SVG Version: 6.00 Build 0)  -->
<svg version="1.1" id="Layer_1" xmlns="http://www.w3.org/2000/svg" xmlns:xlink="http://www.w3.org/1999/xlink" x="0px" y="0px"
	 viewBox="0 0 500 500" style="enable-background:new 0 0 500 500;" xml:space="preserve">
<style type="text/css">
	.st0{clip-path:url(#SVGID_2_);}
	.st1{clip-path:url(#SVGID_4_);}
	.st2{fill:#EE3145;}
	.st3{fill:#FFFFFF;}
	.st4{fill:none;stroke:#1D184B;stroke-width:12;stroke-miterlimit:10;}
	.st5{fill:#FFFFFF;stroke:#1D184B;stroke-width:12;stroke-miterlimit:10;}
	.st6{fill:#1D184B;}
	.st7{fill:none;stroke:#1D184B;stroke-miterlimit:10;}
	.st8{fill:#ED3045;}
	.st9{fill:none;stroke:#1D184B;stroke-width:3;stroke-miterlimit:10;}
	.st10{fill:none;stroke:#1D184B;stroke-width:4;stroke-miterlimit:10;}
	.st11{fill:none;stroke:#1D184B;stroke-width:2;stroke-miterlimit:10;}
	.st12{fill:none;}
	.st13{fill:none;stroke:#1D184B;stroke-width:9;stroke-miterlimit:10;}
	.st14{fill:none;stroke:#1D184B;stroke-width:5;stroke-miterlimit:10;}
	.st15{fill:#FFFFFF;stroke:#1D184B;stroke-width:5;stroke-miterlimit:10;}
	.st16{fill:none;stroke:#1D184B;stroke-width:7;stroke-miterlimit:10;}
	.st17{font-family:'Liquorstore-Regular';}
	.st18{font-size:68.1503px;}
	.st19{fill:#FFFFFF;stroke:#1D184B;stroke-width:2;stroke-miterlimit:10;}
	.st20{fill:none;stroke:#1D184B;stroke-width:13;stroke-miterlimit:10;}
</style>
<g>
	<circle class="st2" cx="266.99" cy="250" r="218.12"/>
	<circle class="st3" cx="266.99" cy="250" r="181.25"/>
</g>
<circle class="st4" cx="255.01" cy="241.04" r="181.25"/>
<circle class="st4" cx="255.01" cy="241.04" r="218.12"/>
<polygon class="st2" points="305.29,296.23 257.3,343.11 211.83,295.14 191.34,315.76 257.69,383.8 326.21,316.98 "/>
<polygon class="st13" points="295.27,295.36 247.28,342.24 201.81,294.27 181.32,314.89 247.67,382.93 316.2,316.11 "/>
<rect x="237.28" y="181.38" class="st2" width="24.71" height="167.42"/>
<polyline class="st16" points="238.28,335.78 238.28,182.38 262.99,182.38 262.99,330.64 "/>
<text transform="matrix(1 0 0 1 157.5499 164.2885)" class="st2 st17 st18">SERVICE</text>
<g>
	<text transform="matrix(1 0 0 1 154.5499 162.3187)" class="st9 st17 st18">SERVICE</text>
</g>
</svg>
